<?xml version="1.0" standalone="no"?>
<!DOCTYPE svg PUBLIC "-//W3C//DTD SVG 20010904//EN"
 "http://www.w3.org/TR/2001/REC-SVG-20010904/DTD/svg10.dtd">
<svg version="1.0" xmlns="http://www.w3.org/2000/svg"
 width="651.000000pt" height="651.000000pt" viewBox="0 0 651.000000 651.000000"
 preserveAspectRatio="xMidYMid meet">

<g transform="translate(0.000000,651.000000) scale(0.100000,-0.100000)"
fill="#000000" stroke="none">
<path d="M3414 6275 c11 -8 28 -15 39 -15 10 0 16 -4 13 -8 -3 -5 6 -15 19
-22 13 -7 22 -16 20 -21 -8 -12 -55 14 -56 31 0 10 -3 9 -8 -4 -5 -14 -10 -16
-15 -8 -8 13 -78 17 -89 5 -4 -3 -2 -12 3 -18 8 -9 -3 -14 -42 -20 -101 -14
-119 -14 -113 -5 4 6 -3 10 -14 10 -12 0 -21 -4 -21 -10 0 -5 -4 -10 -10 -10
-5 0 -10 11 -10 25 0 14 -4 25 -10 25 -5 0 -10 -7 -10 -15 0 -24 -17 -17 -24
10 -9 36 -18 31 -39 -19 -19 -46 -97 -111 -105 -87 -6 19 -20 13 -58 -28 -25
-28 -47 -41 -74 -46 -25 -4 -37 -11 -34 -19 2 -6 -9 -22 -26 -34 -16 -13 -30
-29 -30 -36 0 -8 -7 -17 -16 -20 -24 -9 -31 -7 -14 4 9 6 10 10 3 10 -6 0 -15
-4 -18 -10 -3 -5 -13 -10 -22 -10 -14 0 -12 4 6 23 12 13 34 30 49 38 15 8 34
20 42 28 13 13 11 13 -15 7 -30 -7 -103 -59 -118 -83 -5 -8 -30 -40 -57 -72
-71 -85 -81 -116 -76 -228 4 -86 3 -97 -19 -129 -44 -65 -69 -129 -73 -186 -4
-51 0 -65 37 -140 68 -135 131 -251 145 -268 21 -24 49 -81 57 -120 14 -60 19
-95 13 -82 -3 6 -12 12 -20 12 -9 0 -13 4 -10 9 3 5 -1 12 -9 15 -11 4 -15 0
-13 -11 2 -11 -5 -19 -17 -21 -55 -10 -132 -56 -165 -97 -19 -24 -36 -42 -39
-40 -6 7 -41 -52 -41 -69 0 -8 -6 -16 -14 -19 -15 -6 -104 -136 -96 -141 3 -2
0 -9 -6 -17 -6 -8 -14 -26 -18 -41 -3 -14 -14 -29 -24 -32 -9 -2 1 -3 23 0 36
4 38 3 15 -7 -15 -7 -77 -11 -155 -10 -110 2 -146 -2 -230 -24 -71 -18 -105
-31 -116 -47 -15 -19 -46 -137 -52 -198 -1 -15 -23 -44 -56 -75 -29 -27 -74
-77 -101 -110 -45 -57 -160 -246 -160 -264 0 -4 -9 -16 -20 -26 -15 -14 -18
-26 -14 -59 7 -46 -4 -62 -46 -68 -23 -3 -38 -20 -115 -129 -16 -24 -52 -69
-80 -100 -27 -32 -71 -82 -97 -112 -26 -30 -64 -83 -84 -118 -19 -35 -45 -77
-58 -94 -12 -16 -28 -43 -36 -58 -7 -15 -28 -45 -46 -65 -22 -26 -35 -56 -44
-97 -6 -33 -21 -80 -32 -103 -18 -39 -20 -57 -16 -151 5 -94 11 -123 58 -261
28 -85 59 -168 67 -183 8 -16 12 -31 10 -34 -5 -5 -57 103 -57 118 0 5 -4 9
-9 9 -5 0 -14 17 -19 37 -10 36 -10 35 -5 -14 4 -36 2 -53 -6 -53 -6 0 -11 -7
-11 -16 0 -10 -6 -14 -15 -10 -10 3 -17 -3 -21 -19 -6 -25 -30 -40 -39 -25
-11 17 -37 11 -33 -8 4 -19 -35 -67 -54 -67 -7 0 -17 -9 -23 -21 -5 -11 -15
-19 -21 -17 -7 2 -22 -13 -35 -34 -29 -47 -35 -53 -81 -82 -21 -12 -38 -29
-38 -36 0 -8 -9 -16 -19 -20 -11 -3 -22 -12 -25 -20 -3 -8 -13 -15 -22 -15
-11 0 -14 -5 -10 -16 3 -8 -4 -33 -17 -55 -17 -30 -28 -39 -49 -39 -26 0 -28
-3 -28 -40 0 -22 -4 -40 -10 -40 -5 0 -10 18 -10 40 l0 40 -50 0 -50 0 0 40
c0 29 -4 40 -15 40 -13 0 -15 -93 -15 -775 l0 -775 2030 0 c1117 0 2030 4
2030 8 0 4 7 64 16 132 8 69 15 186 15 260 0 74 0 176 1 225 l0 90 8 -65 c4
-36 12 -78 18 -95 9 -27 10 -28 11 -6 1 15 6 21 14 18 9 -3 13 6 13 30 0 38
32 72 69 73 18 1 18 2 -2 10 -28 12 -30 36 -3 50 11 6 19 14 19 18 -4 27 3 52
16 52 17 0 30 23 38 68 8 37 28 62 51 62 23 0 20 36 -4 53 -18 13 -19 15 -5
21 9 3 13 11 10 16 -4 6 -1 18 6 26 6 8 12 37 13 64 1 38 5 51 19 56 17 5 18
46 8 274 -2 41 6 127 13 138 4 7 13 12 20 12 8 0 19 7 26 15 27 33 -25 2 -67
-39 -58 -57 -73 -68 -73 -57 0 6 6 14 13 18 18 11 107 118 107 129 0 4 46 54
103 110 56 56 108 109 115 118 26 32 52 102 52 140 0 22 11 58 26 86 24 44 25
50 14 101 -7 30 -13 119 -14 199 -2 111 -6 156 -20 190 -26 67 -66 236 -66
278 0 21 -8 53 -19 72 -15 29 -17 49 -13 113 4 68 2 81 -15 100 -19 21 -26 54
-54 242 -5 33 -21 94 -35 135 -67 191 -96 267 -113 296 -11 18 -17 42 -14 57
4 18 -8 50 -37 104 -53 97 -66 113 -100 113 -14 0 -30 4 -35 9 -12 10 -140 41
-310 75 -178 35 -260 62 -302 99 -32 28 -103 126 -103 142 0 3 13 5 29 5 39 0
92 19 118 42 12 11 27 43 33 72 7 28 23 91 36 139 14 49 27 119 29 155 6 90
15 172 21 201 4 19 10 22 31 18 33 -6 72 8 89 31 7 9 18 49 24 87 6 39 15 78
20 87 21 37 11 57 -38 82 -26 13 -65 27 -85 31 -20 4 -37 11 -37 15 0 5 -11
21 -24 37 -13 15 -28 45 -34 66 -9 32 -8 37 6 37 13 0 14 2 4 8 -9 6 -6 12 13
20 25 12 32 26 17 36 -5 3 -6 24 -3 48 6 40 8 43 36 43 25 0 30 -4 28 -22 -2
-17 2 -23 17 -23 11 0 20 -6 20 -12 0 -7 7 -2 16 10 9 13 14 37 12 59 -2 23 2
38 10 41 7 2 13 -2 11 -9 -3 -27 1 -40 11 -34 6 3 10 16 10 27 0 24 -53 115
-81 139 -25 22 -24 32 2 24 20 -7 21 -5 15 21 -4 16 -14 36 -22 45 -22 24 -17
32 17 25 22 -4 29 -2 25 7 -3 6 -9 20 -12 30 -5 13 -13 17 -28 12 -42 -13 -50
-10 -50 15 0 20 5 26 27 28 42 5 35 21 -29 65 -43 29 -73 31 -103 5 -10 -8
-43 -17 -75 -20 -53 -4 -56 -3 -56 18 0 13 -4 26 -10 29 -5 3 -10 16 -10 29 0
34 -65 86 -107 86 -17 -1 -17 -2 1 -15z m26 -81 c0 -2 -11 -4 -25 -4 -14 0
-25 4 -25 9 0 4 11 6 25 3 14 -2 25 -6 25 -8z m260 -54 c0 -5 -2 -10 -4 -10
-3 0 -8 5 -11 10 -3 6 -1 10 4 10 6 0 11 -4 11 -10z m-251 -21 c11 -18 11 -23
-1 -30 -20 -13 -31 -11 -25 6 4 8 2 17 -3 20 -14 9 -12 25 3 25 7 0 18 -10 26
-21z m-75 -14 c3 -8 2 -15 -3 -15 -5 0 -14 7 -21 15 -10 12 -10 15 3 15 8 0
17 -7 21 -15z m366 0 c0 -8 -9 -19 -20 -25 -23 -12 -25 -8 -8 20 15 24 28 26
28 5z m-1076 -209 c-21 -15 -30 -14 -19 3 3 6 14 11 23 11 13 0 13 -2 -4 -14z
m1181 -105 c10 -17 -12 -21 -25 -6 -10 12 -10 15 3 15 9 0 18 -4 22 -9z m-570
-82 c60 -16 116 -32 123 -34 10 -4 10 -10 2 -25 -9 -17 -5 -26 24 -56 19 -19
44 -36 55 -37 13 -1 21 -8 21 -19 0 -10 7 -18 15 -18 9 0 19 -8 22 -17 4 -10
11 -22 17 -26 6 -5 3 -6 -9 -4 -27 7 -96 20 -115 22 -8 1 -30 5 -47 9 -34 9
-45 26 -18 26 13 0 14 4 5 20 -6 11 -15 18 -21 15 -5 -4 -6 -12 -2 -18 5 -9 3
-9 -8 0 -8 6 -29 9 -47 7 -22 -2 -35 1 -38 11 -3 7 -12 11 -20 8 -8 -3 -14 1
-14 9 0 21 -42 57 -47 41 -10 -28 -32 -12 -35 25 -2 21 -8 37 -15 37 -14 0
-16 7 -7 29 3 8 12 12 20 9 8 -3 14 0 14 6 0 15 -1 15 125 -20z m572 -21 c-3
-8 -6 -5 -6 6 -1 11 2 17 5 13 3 -3 4 -12 1 -19z m-129 -30 c-6 -18 -28 -21
-28 -4 0 9 7 16 16 16 9 0 14 -5 12 -12z m-428 -142 c-10 -10 -30 0 -30 15 0
6 5 7 10 4 6 -3 10 0 10 7 0 9 3 9 10 -2 5 -8 5 -19 0 -24z m40 -26 c0 -5 -5
-10 -11 -10 -5 0 -7 5 -4 10 3 6 8 10 11 10 2 0 4 -4 4 -10z m-910 -170 l-7
-65 -2 52 c-1 45 7 89 14 81 2 -2 -1 -32 -5 -68z m1420 15 c13 -14 22 -27 19
-29 -9 -8 -93 -46 -96 -43 -2 2 2 18 8 36 6 17 8 38 5 46 -9 25 38 18 64 -10z
m-703 -11 c-3 -3 -12 -4 -19 -1 -8 3 -5 6 6 6 11 1 17 -2 13 -5z m547 -70 c20
-31 34 -44 45 -41 9 3 44 14 78 25 34 11 64 17 67 14 11 -11 6 -83 -9 -117
-17 -43 -36 -51 -83 -37 -25 8 -38 8 -43 1 -3 -6 -19 -10 -35 -8 -16 1 -36 -1
-44 -4 -63 -23 -119 -7 -87 24 7 8 17 23 22 34 8 19 9 19 12 -2 5 -26 38 -40
57 -24 7 6 16 8 20 4 4 -4 4 1 0 11 -5 14 -9 15 -16 4 -7 -9 -8 -2 -4 20 5 30
4 32 -9 18 -24 -23 -46 -10 -34 21 5 13 9 42 9 64 0 52 18 50 54 -7z m-404 22
c0 -9 -30 -14 -35 -6 -4 6 3 10 14 10 12 0 21 -2 21 -4z m-502 -35 c12 -11 22
-22 22 -26 0 -4 -6 -2 -14 4 -7 6 -31 17 -52 25 -38 14 -38 15 -9 15 17 0 40
-8 53 -18z m761 -40 c1 -50 -2 -61 -18 -66 -22 -7 -49 3 -73 27 -23 23 -23 26
5 21 25 -5 77 38 77 63 0 8 2 14 4 14 2 0 4 -27 5 -59z m-247 -25 c11 -17 21
-76 14 -83 -13 -14 -81 12 -91 35 -5 12 -13 22 -18 22 -4 0 -5 6 0 13 4 6 8
15 9 20 1 4 2 9 3 12 2 10 76 -7 83 -19z m-564 -15 c3 -16 8 -20 23 -16 13 4
19 2 19 -9 0 -14 -12 -21 -24 -13 -2 1 -16 -11 -31 -27 -21 -23 -25 -34 -20
-60 8 -35 40 -65 70 -66 16 0 13 4 -13 20 -28 17 -31 23 -22 40 15 27 29 25
40 -6 6 -14 14 -22 20 -19 10 6 14 -7 11 -32 -1 -8 11 -13 34 -13 19 0 35 -4
35 -9 0 -15 -49 -19 -67 -5 -10 7 -29 14 -43 14 -66 1 -92 67 -70 174 12 58
32 72 38 27z m726 -49 c53 -18 56 -21 41 -36 -39 -39 -125 -12 -110 35 3 10 1
20 -5 24 -5 3 -10 12 -10 18 1 7 6 5 13 -5 7 -9 39 -25 71 -36z m-809 -49 c3
-39 2 -43 -5 -18 -10 38 -12 80 -4 72 4 -4 8 -28 9 -54z m222 25 c4 -7 8 -28
8 -46 0 -33 0 -33 -17 -11 -19 22 -24 69 -9 69 6 0 13 -6 18 -12z m666 -83 c9
-4 31 -5 49 -3 27 4 29 3 14 -7 -9 -7 -26 -10 -38 -7 -12 3 -26 -1 -32 -9 -10
-13 -59 -39 -73 -39 -3 0 -3 9 0 20 3 11 0 20 -6 20 -7 0 -5 5 3 10 9 6 10 10
3 10 -13 0 -37 -48 -47 -92 -6 -26 -26 -40 -26 -18 0 6 -3 9 -7 8 -5 -2 -10 1
-13 7 -3 5 4 10 14 10 11 0 21 6 24 14 3 10 -2 13 -20 9 -21 -4 -24 -1 -20 19
2 12 7 21 11 19 3 -2 15 2 26 10 18 13 17 14 -9 14 -15 0 -25 4 -22 9 7 10
143 7 169 -4z m-745 -85 c6 0 12 -7 12 -15 0 -12 -5 -13 -27 -3 -40 17 -54 32
-23 24 14 -3 31 -6 38 -6z m106 -15 c-7 -17 -14 -18 -41 -8 -16 6 -15 8 7 14
38 11 40 10 34 -6z m744 10 c-3 -3 -20 -10 -38 -15 -19 -5 -29 -6 -24 -1 12
12 74 27 62 16z m-104 -284 c3 -5 -4 -11 -16 -14 -25 -7 -33 -3 -23 12 8 13
32 14 39 2z m-867 -463 c-3 -8 -6 -5 -6 6 -1 11 2 17 5 13 3 -3 4 -12 1 -19z
m832 -25 c1 26 20 21 27 -8 3 -14 10 -25 15 -25 5 0 9 -13 9 -30 0 -16 7 -54
15 -85 23 -91 38 -332 32 -534 -6 -197 -18 -267 -106 -593 -55 -203 -168 -582
-208 -698 -31 -91 -100 -240 -112 -240 -9 0 -10 2 -117 244 -80 180 -99 232
-70 193 13 -16 57 -70 100 -120 63 -74 119 -191 109 -227 -2 -9 1 -7 8 4 20
32 3 89 -55 184 -32 51 -61 92 -66 92 -5 0 -12 11 -16 25 -3 14 -9 25 -13 25
-4 0 -13 10 -18 23 -12 23 -49 70 -95 119 -35 37 -74 125 -173 393 -94 253
-106 338 -112 828 -3 207 -2 389 1 403 l7 27 15 -22 c8 -11 22 -21 30 -21 8 0
14 -4 14 -8 0 -5 18 -15 40 -22 22 -7 40 -17 40 -21 0 -8 149 -59 171 -59 24
0 -4 18 -36 24 -19 4 -54 15 -78 26 l-42 19 32 0 c30 1 82 -16 93 -30 10 -13
80 -20 80 -8 0 8 4 8 15 -1 8 -7 15 -25 15 -40 0 -20 6 -29 23 -34 36 -10 99
-7 92 4 -3 6 -15 10 -26 10 -12 0 -19 7 -19 19 0 24 21 32 60 24 19 -3 30 -1
30 6 0 6 -8 12 -17 12 -17 1 -17 2 0 6 10 3 29 11 43 18 28 14 72 9 55 -8 -5
-5 -7 -15 -4 -22 2 -7 -5 -16 -16 -20 -12 -3 -21 -10 -21 -15 0 -5 12 -2 28 6
15 7 33 14 40 14 7 0 48 35 90 78 58 58 79 73 84 62 5 -12 7 -12 7 3z m629
-939 c-4 -20 -154 -60 -262 -70 -63 -7 -68 -6 -64 12 3 16 18 21 83 31 44 6
107 18 140 26 82 21 107 21 103 1z m2 -680 c0 -7 -6 -14 -12 -17 -9 -3 -13 8
-14 36 0 22 -5 42 -12 45 -7 2 -12 10 -12 17 0 7 -5 15 -12 17 -6 2 -8 10 -4
17 5 8 18 -7 37 -46 16 -32 29 -63 29 -69z m-2875 -194 c3 -5 1 -10 -4 -10 -6
0 -11 5 -11 10 0 6 2 10 4 10 3 0 8 -4 11 -10z m2055 -510 c8 -5 11 -12 7 -16
-3 -4 -12 -2 -20 4 -7 6 -35 12 -62 15 l-50 3 55 2 c30 1 62 -2 70 -8z m-152
-7 c-10 -2 -26 -2 -35 0 -10 3 -2 5 17 5 19 0 27 -2 18 -5z m637 -69 c50 -20
95 -54 95 -71 0 -7 7 -13 15 -13 36 0 10 -27 -51 -52 -55 -23 -66 -25 -71 -12
-7 18 24 43 53 44 22 0 39 24 28 41 -11 18 -25 9 -19 -12 7 -20 5 -21 -30 -15
-31 6 -37 5 -32 -7 13 -34 -26 -26 -69 13 -24 22 -52 40 -62 40 -41 0 -30 15
25 36 73 27 73 27 118 8z m-855 -44 c0 -20 -52 -55 -64 -43 -12 13 -6 23 15
23 12 0 23 8 26 20 7 26 23 26 23 0z m949 -106 c-23 -10 -44 -29 -58 -55 -27
-47 -36 -47 -20 0 11 31 66 70 99 70 8 0 -1 -7 -21 -15z m23 -81 c5 -6 8 -22
6 -34 -2 -12 3 -24 11 -27 11 -4 13 4 8 38 -3 24 -11 47 -19 51 -19 12 0 11
23 -1 29 -16 27 -100 -3 -134 -20 -21 -28 -24 -62 -18 -38 7 -62 29 -31 29 8
0 15 -4 15 -9 0 -4 9 -8 20 -8 11 0 20 7 20 16 0 8 5 12 10 9 6 -3 10 -1 10 4
0 14 -13 14 -26 1 -14 -14 -44 -2 -45 19 -1 14 -2 13 -6 -2 -2 -9 -8 -15 -13
-12 -14 8 1 45 19 46 10 0 11 2 4 6 -7 2 -13 14 -12 26 0 21 1 21 9 2 8 -19 9
-18 9 4 1 20 3 21 16 11 13 -10 15 -9 16 11 1 21 2 21 6 4 3 -11 9 -25 15 -32z
m-2295 -5 c-3 -8 -6 -5 -6 6 -1 11 2 17 5 13 3 -3 4 -12 1 -19z m2769 -5 c-10
-10 -19 5 -10 18 6 11 8 11 12 0 2 -7 1 -15 -2 -18z m-1161 -13 c3 -5 -1 -10
-9 -10 -9 0 -16 5 -16 10 0 6 4 10 9 10 6 0 13 -4 16 -10z m-1539 -107 c8 -19
13 -37 11 -39 -2 -3 -10 10 -18 28 -7 18 -23 50 -36 70 -13 21 -23 41 -23 45
0 13 51 -66 66 -104z m53 -133 c0 -8 -8 5 -19 29 -11 24 -20 46 -20 50 1 12
39 -64 39 -79z m-589 -132 c0 -6 -6 -5 -15 2 -8 7 -15 14 -15 16 0 2 7 1 15
-2 8 -4 15 -11 15 -16z m49 -104 c53 -104 73 -116 141 -84 44 21 53 22 75 10
14 -7 30 -29 36 -49 6 -20 15 -40 19 -46 5 -5 18 -44 30 -85 12 -41 28 -79 34
-85 20 -18 47 -66 43 -78 -2 -6 -15 5 -28 26 -20 28 -28 34 -37 25 -7 -7 -12
-17 -12 -24 0 -6 -7 -17 -15 -24 -8 -7 -15 -21 -15 -31 0 -10 -5 -30 -11 -46
l-11 -28 -15 35 c-8 19 -21 42 -28 50 -18 20 -52 121 -61 176 -4 26 -13 48
-23 53 -17 9 -21 47 -8 68 4 6 -6 13 -25 17 -17 3 -40 16 -50 29 -23 25 -88
151 -88 168 0 18 5 11 49 -77z m1837 -40 c-25 -36 -19 -42 9 -9 18 23 24 26
25 13 0 -11 12 -20 33 -26 30 -8 32 -12 35 -54 2 -26 8 -50 15 -55 26 -20 97
-36 133 -30 44 7 64 -5 64 -39 0 -13 7 -43 15 -68 8 -24 17 -59 19 -77 2 -18
9 -35 15 -37 7 -2 7 -9 -2 -23 -8 -13 -24 -19 -52 -20 -91 -2 -88 -17 4 -18
80 -1 92 -3 87 -17 -3 -8 -1 -24 4 -34 8 -15 6 -21 -7 -30 -15 -8 -13 -9 10
-4 15 4 27 2 27 -4 0 -17 -145 -43 -242 -43 -148 0 -259 35 -398 126 -50 32
-133 65 -166 65 -20 0 -64 22 -64 32 0 4 13 8 28 8 15 0 50 14 78 32 27 17 58
31 70 29 11 -1 27 5 34 13 7 9 18 16 25 16 6 0 17 11 23 25 7 14 17 31 22 38
6 7 43 60 82 119 39 59 75 105 80 102 5 -3 2 -17 -6 -30z m-936 16 c0 -5 -5
-10 -11 -10 -5 0 -7 5 -4 10 3 6 8 10 11 10 2 0 4 -4 4 -10z m1987 -207 c-2
-16 -4 -3 -4 27 0 30 2 43 4 28 2 -16 2 -40 0 -55z m-2457 -254 c0 -6 -4 -7
-10 -4 -5 3 -10 11 -10 16 0 6 5 7 10 4 6 -3 10 -11 10 -16z"/>
<path d="M3175 5650 c3 -5 8 -10 11 -10 2 0 4 5 4 10 0 6 -5 10 -11 10 -5 0
-7 -4 -4 -10z"/>
<path d="M3340 5651 c0 -4 11 -6 25 -3 14 2 25 6 25 8 0 2 -11 4 -25 4 -14 0
-25 -4 -25 -9z"/>
<path d="M3640 5209 c-7 -11 -10 -23 -7 -25 2 -2 9 7 15 21 14 30 7 33 -8 4z"/>
<path d="M3394 5099 c-8 -13 19 -21 57 -17 l34 3 -43 11 c-24 6 -45 7 -48 3z"/>
<path d="M2995 3980 c3 -5 10 -10 16 -10 5 0 9 5 9 10 0 6 -7 10 -16 10 -8 0
-12 -4 -9 -10z"/>
<path d="M3200 3974 c0 -14 3 -14 15 -4 8 7 15 14 15 16 0 2 -7 4 -15 4 -8 0
-15 -7 -15 -16z"/>
<path d="M3876 1473 c3 -39 3 -40 14 -21 10 17 4 48 -10 48 -4 0 -6 -12 -4
-27z"/>
<path d="M1342 911 c-11 -6 -9 -9 7 -14 12 -3 22 1 25 9 6 16 -12 18 -32 5z"/>
<path d="M1405 900 c3 -5 8 -10 11 -10 2 0 4 5 4 10 0 6 -5 10 -11 10 -5 0 -7
-4 -4 -10z"/>
<path d="M1460 766 c0 -8 5 -18 10 -21 6 -3 10 1 10 9 0 8 -4 18 -10 21 -5 3
-10 -1 -10 -9z"/>
<path d="M1475 720 c3 -5 8 -10 11 -10 2 0 4 5 4 10 0 6 -5 10 -11 10 -5 0 -7
-4 -4 -10z"/>
<path d="M1486 684 c-4 -10 -1 -14 6 -12 15 5 23 28 10 28 -5 0 -13 -7 -16
-16z"/>
<path d="M1481 634 c0 -11 3 -14 6 -6 3 7 2 16 -1 19 -3 4 -6 -2 -5 -13z"/>
<path d="M2950 520 c0 -5 9 -10 19 -10 11 0 23 5 26 10 4 6 -5 10 -19 10 -14
0 -26 -4 -26 -10z"/>
<path d="M3818 6063 c7 -3 16 -2 19 1 4 3 -2 6 -13 5 -11 0 -14 -3 -6 -6z"/>
<path d="M668 1997 c-3 -19 -2 -25 4 -19 6 6 8 18 6 28 -3 14 -5 12 -10 -9z"/>
<path d="M28 1843 c7 -3 16 -2 19 1 4 3 -2 6 -13 5 -11 0 -14 -3 -6 -6z"/>
<path d="M4456 1654 c-23 -23 -20 -30 4 -9 11 10 20 20 20 22 0 7 -9 2 -24
-13z"/>
<path d="M4455 1570 c-3 -5 -1 -10 4 -10 6 0 11 5 11 10 0 6 -2 10 -4 10 -3 0
-8 -4 -11 -10z"/>
<path d="M6100 1190 c0 -5 9 -10 20 -10 11 0 20 5 20 10 0 6 -9 10 -20 10 -11
0 -20 -4 -20 -10z"/>
<path d="M6216 1191 c-7 -10 23 -20 42 -14 6 3 12 9 12 14 0 12 -47 12 -54 0z"/>
<path d="M6471 1109 l-1 -47 -77 -9 -78 -10 55 -2 c89 -4 107 -19 23 -20 -80
-1 -103 -20 -25 -22 26 -1 58 -5 72 -10 18 -6 10 -7 -27 -4 l-52 6 -4 -43 -4
-43 -1 43 c-2 47 -6 49 -50 26 -39 -19 -40 -31 -4 -45 26 -11 26 -11 6 -19
-11 -5 -53 -7 -92 -7 -67 2 -71 1 -77 -21 -5 -20 -10 -22 -35 -17 -23 5 -31 2
-40 -14 -7 -14 -21 -21 -40 -21 -28 0 -30 -2 -30 -40 l0 -40 -45 0 c-50 0 -49
1 -33 -35 9 -20 18 -25 50 -25 21 0 38 -4 38 -10 0 -6 -63 -10 -170 -10 l-170
0 0 -80 0 -80 -39 0 -39 0 -7 -79 -7 -79 -101 3 c-56 1 -85 1 -63 -2 35 -4 37
-5 20 -18 -18 -13 -18 -14 -1 -15 9 0 17 -7 17 -15 0 -8 -8 -15 -17 -15 -10 0
-34 -5 -53 -10 -30 -8 -36 -14 -35 -37 0 -24 -4 -28 -27 -28 -16 1 -28 -5 -28
-12 0 -7 -6 -13 -13 -13 -7 0 -13 -12 -12 -28 0 -22 -4 -27 -25 -27 -32 0 -55
-23 -55 -55 0 -24 -2 -25 -78 -26 -44 -1 -84 -7 -90 -13 -8 -8 -8 -11 1 -11 7
0 12 -7 12 -15 0 -13 89 -15 745 -15 l745 0 0 565 c0 481 -2 565 -14 565 -8 0
-17 6 -19 13 -3 6 -6 -9 -6 -34z m-471 -389 c0 -5 -18 -10 -40 -10 -22 0 -40
5 -40 10 0 6 18 10 40 10 22 0 40 -4 40 -10z m-257 -97 c-13 -2 -33 -2 -45 0
-13 2 -3 4 22 4 25 0 35 -2 23 -4z m-56 -175 c-2 -13 -4 -3 -4 22 0 25 2 35 4
23 2 -13 2 -33 0 -45z m-200 -234 c-3 -3 -12 -4 -19 -1 -8 3 -5 6 6 6 11 1 17
-2 13 -5z"/>
<path d="M4320 864 c0 -8 5 -12 10 -9 6 3 10 10 10 16 0 5 -4 9 -10 9 -5 0
-10 -7 -10 -16z"/>
<path d="M4108 515 c-3 -5 -3 -46 1 -90 7 -74 8 -77 15 -42 9 40 -4 149 -16
132z"/>
<path d="M4135 509 c-4 -6 -5 -12 -2 -15 2 -3 7 2 10 11 7 17 1 20 -8 4z"/>
<path d="M4142 415 c0 -16 2 -22 5 -12 2 9 2 23 0 30 -3 6 -5 -1 -5 -18z"/>
<path d="M4103 240 c0 -30 2 -43 4 -27 2 15 2 39 0 55 -2 15 -4 2 -4 -28z"/>
</g>
</svg>
