<?xml version="1.0" standalone="no"?>
<!DOCTYPE svg PUBLIC "-//W3C//DTD SVG 20010904//EN"
 "http://www.w3.org/TR/2001/REC-SVG-20010904/DTD/svg10.dtd">
<svg version="1.0" xmlns="http://www.w3.org/2000/svg"
 width="1880.000000pt" height="1253.000000pt" viewBox="0 0 1880.000000 1253.000000"
 preserveAspectRatio="xMidYMid meet">
<metadata>
Created by potrace 1.15, written by Peter Selinger 2001-2017
</metadata>
<g transform="translate(0.000000,1253.000000) scale(0.100000,-0.100000)"
fill="#000000" stroke="none">
<path d="M5460 3430 c-21 -18 -24 -18 -47 -3 -17 11 -27 13 -35 5 -11 -11 -1
-35 12 -27 4 3 6 -4 3 -14 -6 -23 -29 -18 -37 7 -3 10 -4 6 -4 -8 2 -35 -22
-80 -38 -73 -9 3 -12 -2 -9 -17 4 -21 3 -22 -14 -6 -11 10 -17 25 -14 35 8 30
-10 30 -39 0 -18 -20 -22 -29 -13 -29 11 0 10 -5 -5 -20 -28 -28 -24 -50 12
-63 10 -4 15 -13 11 -25 -6 -25 -72 -26 -90 -1 -14 18 -61 22 -80 7 -7 -5 -17
-7 -23 -3 -5 3 -20 -1 -32 -9 -21 -15 -21 -16 -3 -16 15 0 17 -2 6 -9 -7 -5
-11 -13 -8 -18 6 -10 -27 -43 -43 -43 -18 0 -11 19 11 30 25 14 18 24 -10 15
-12 -3 -21 -14 -21 -24 0 -10 -11 -24 -25 -31 -24 -13 -36 -42 -14 -38 6 2 12
-14 13 -35 2 -24 -1 -36 -8 -34 -6 2 -11 14 -10 26 1 37 -14 23 -21 -20 -6
-32 -4 -44 7 -50 22 -12 15 -52 -10 -64 -12 -5 -22 -15 -22 -22 0 -6 -13 -14
-29 -18 -22 -5 -31 -14 -36 -36 -4 -16 -10 -29 -15 -29 -5 0 -15 -14 -24 -30
-8 -17 -11 -28 -6 -25 5 3 11 1 14 -4 4 -5 -6 -11 -21 -13 -26 -3 -28 -6 -29
-53 -1 -72 5 -93 28 -101 16 -5 18 -8 7 -15 -7 -4 -10 -11 -6 -15 4 -4 17 1
29 12 23 19 23 19 6 -2 -10 -11 -18 -25 -18 -30 0 -5 -14 -18 -30 -29 -27 -18
-35 -33 -31 -58 1 -4 -5 -10 -14 -13 -8 -3 -17 -22 -21 -42 -4 -21 -12 -41
-18 -45 -8 -6 -7 -10 2 -14 10 -4 10 -8 1 -19 -9 -11 -8 -14 2 -14 7 0 3 -7
-9 -16 -36 -25 -16 -93 22 -78 9 3 16 2 16 -4 0 -6 -5 -12 -11 -14 -8 -3 -6
-10 5 -20 9 -9 16 -21 16 -27 0 -5 7 -17 16 -25 9 -9 11 -16 4 -16 -6 0 -9 -4
-5 -9 3 -5 -3 -12 -13 -15 -10 -3 -18 -14 -18 -23 -2 -40 -14 -79 -28 -89 -8
-6 -15 -19 -14 -30 0 -10 -3 -28 -7 -38 -7 -16 -5 -18 8 -13 22 8 30 -8 12
-23 -16 -13 -20 -40 -6 -40 4 0 6 -11 3 -25 -3 -20 0 -25 17 -25 12 0 20 -4
17 -9 -10 -16 25 -21 67 -10 22 6 53 8 69 5 28 -6 68 20 68 44 0 18 61 25 145
16 47 -6 85 -13 85 -17 0 -13 93 -50 99 -40 16 26 107 41 127 21 7 -7 23 0 50
20 32 24 49 29 92 30 47 0 53 2 48 18 -4 12 3 27 18 41 22 21 30 22 85 16 42
-5 74 -16 103 -35 29 -20 47 -26 58 -20 19 10 33 8 80 -13 54 -23 95 -24 119
-3 18 16 27 17 63 9 35 -7 50 -6 81 10 38 20 45 31 26 43 -6 3 -9 17 -6 30 2
14 0 27 -5 30 -4 3 -6 9 -3 14 3 4 -2 13 -11 20 -12 11 -12 15 -2 21 10 7 9 9
-4 9 -27 0 -22 19 8 30 36 14 58 37 41 44 -9 5 -9 7 1 12 17 8 15 31 -3 38
-17 6 -16 24 3 44 19 21 14 34 -9 27 -15 -5 -19 -4 -14 5 4 6 15 10 26 7 10
-3 25 3 35 14 9 10 13 19 8 19 -5 0 -1 7 9 15 11 7 26 11 35 8 11 -5 13 -3 7
6 -5 10 -2 11 12 7 30 -10 56 3 42 20 -6 8 -8 14 -5 14 4 0 2 9 -4 21 -9 16
-8 23 4 32 16 13 11 62 -5 51 -12 -7 -11 3 1 27 6 10 21 19 34 19 15 0 27 9
35 27 9 20 15 23 23 15 7 -7 20 -12 31 -12 14 0 17 5 12 21 -4 13 0 27 11 40
17 19 29 103 13 94 -4 -3 -15 15 -25 40 -9 25 -21 45 -25 45 -5 0 -9 9 -9 21
0 11 -4 18 -9 14 -5 -3 -12 3 -15 12 -7 22 -43 46 -56 38 -15 -9 -12 -25 5
-25 8 0 12 -6 9 -14 -7 -18 -28 -11 -61 20 -23 21 -24 25 -10 39 9 8 20 14 24
13 4 -2 18 7 30 19 20 20 21 28 11 101 -1 6 -7 12 -15 12 -7 0 -16 7 -19 15
-4 8 -12 15 -19 15 -7 0 -15 7 -19 15 -3 8 -13 15 -22 15 -12 0 -15 6 -11 21
4 16 2 19 -10 15 -9 -4 -25 2 -37 12 -27 25 -63 34 -70 17 -7 -19 -45 -25 -60
-10 -7 8 -16 11 -20 8 -3 -4 -6 1 -6 10 0 22 -22 17 -38 -8 -11 -18 -12 -18
-10 10 2 20 10 32 22 35 31 9 33 32 2 24 -17 -4 -26 -2 -26 6 0 6 -5 8 -12 4
-7 -4 -8 -3 -4 4 4 6 14 8 24 5 14 -5 14 -3 -2 9 -12 9 -17 22 -13 31 3 9 2
19 -3 22 -6 4 -10 14 -10 24 0 10 -7 24 -15 31 -8 7 -15 25 -15 41 0 35 -33
49 -60 24 -12 -11 -20 -13 -25 -5 -3 5 -11 7 -17 4 -13 -8 -2 12 20 39 8 9 11
17 6 18 -5 0 -19 2 -31 5 -16 3 -23 -1 -23 -11 0 -8 -7 -15 -15 -15 -13 0 -14
4 -4 23 11 20 11 21 -4 9 -9 -8 -20 -11 -25 -8 -5 3 -21 -4 -36 -15 -28 -22
-48 -18 -40 9 2 9 -1 7 -7 -5 -14 -26 -29 -30 -29 -8 0 13 -5 11 -22 -5 l-23
-21 -22 26 c-13 14 -23 24 -23 20 0 -3 -18 4 -39 14 -38 20 -39 20 -61 1z"/>
<path d="M1820 3220 c0 -5 -6 -10 -14 -10 -10 0 -14 -11 -12 -40 2 -27 -2 -43
-11 -49 -8 -4 -15 -23 -16 -43 -1 -20 -5 -34 -9 -31 -5 2 -8 -1 -8 -7 0 -7 -7
-9 -16 -6 -8 3 -22 -1 -30 -9 -9 -8 -13 -16 -10 -16 3 -1 11 -3 16 -4 6 -1 13
-3 17 -4 3 0 -4 -9 -15 -20 -12 -10 -22 -23 -22 -30 0 -8 -5 -8 -20 1 -10 7
-23 9 -27 5 -4 -5 -1 -12 7 -17 11 -7 12 -10 2 -10 -7 0 -10 -4 -7 -10 3 -5
-2 -10 -12 -10 -13 0 -15 -3 -5 -8 20 -13 4 -37 -33 -51 -22 -7 -41 -24 -51
-43 -16 -30 -10 -54 6 -28 8 12 10 12 10 1 0 -9 8 -11 28 -7 15 4 36 8 47 9
12 1 19 9 19 20 -1 9 1 17 5 17 4 0 8 7 9 15 1 8 3 22 4 31 1 15 2 15 13 1 10
-14 13 -10 25 21 17 49 33 63 67 58 15 -2 22 -1 15 1 -8 3 -11 12 -7 21 5 14
4 15 -6 5 -25 -24 -30 -13 -9 17 20 28 20 30 3 31 -10 0 -3 5 15 10 31 9 33
12 29 45 -4 25 -1 37 9 41 8 3 14 18 14 33 0 16 5 32 10 35 7 4 7 13 0 26 -11
20 -30 26 -30 9z"/>
<path d="M12689 3225 c-1 -3 -2 -8 -3 -12 -1 -5 -5 -13 -9 -19 -4 -7 0 -18 9
-25 14 -11 13 -15 -7 -30 -17 -13 -29 -15 -47 -8 -16 6 -21 6 -16 -2 3 -6 0
-16 -7 -21 -10 -6 -6 -7 11 -3 23 5 23 5 8 -8 -17 -13 -17 -15 2 -32 12 -11
19 -29 18 -45 -2 -21 -6 -26 -23 -22 -12 2 -28 -3 -36 -11 -8 -7 -26 -16 -40
-19 -22 -4 -25 -1 -21 14 5 21 -13 25 -21 5 -3 -8 -16 -13 -29 -12 -12 1 -26
-2 -29 -7 -3 -5 -16 -5 -30 0 -18 7 -31 4 -54 -10 -16 -11 -21 -17 -11 -14 16
6 17 4 5 -10 -12 -15 -14 -14 -23 5 -11 25 -29 27 -46 6 -9 -11 -9 -15 -1 -15
7 0 9 -4 6 -10 -3 -6 -15 -1 -28 11 -18 17 -20 21 -7 29 12 8 10 10 -9 10 -17
0 -22 -4 -17 -16 5 -13 2 -15 -15 -11 -15 4 -19 2 -15 -10 3 -8 6 -16 6 -19 0
-2 7 -1 15 2 11 5 13 2 9 -10 -4 -10 0 -18 11 -22 13 -5 14 -9 4 -15 -10 -6
-10 -11 0 -23 8 -9 10 -16 5 -17 -5 -1 9 -7 31 -14 39 -13 40 -13 15 -23 l-25
-9 33 -7 c37 -9 42 -21 10 -30 -30 -8 -64 29 -47 50 9 11 7 14 -7 14 -11 1
-32 11 -47 24 -23 19 -26 24 -13 29 9 4 13 13 10 22 -7 17 -34 21 -34 4 0 -5
5 -7 10 -4 6 3 10 2 10 -4 0 -5 -9 -13 -21 -16 -14 -5 -17 -10 -10 -19 6 -7 6
-17 1 -26 -6 -8 -10 -25 -10 -37 0 -12 -6 -24 -12 -26 -8 -3 -6 -6 5 -6 9 -1
17 4 17 10 0 6 7 4 15 -5 21 -20 19 -26 -9 -26 -20 0 -24 -5 -23 -34 1 -19 4
-33 8 -30 4 2 10 -9 14 -25 4 -17 15 -33 26 -36 16 -5 18 -10 8 -21 -9 -11 -6
-16 15 -23 15 -6 33 -26 43 -48 12 -24 30 -43 51 -52 20 -9 32 -22 32 -33 0
-11 5 -28 11 -39 10 -19 12 -19 28 -5 10 9 31 19 48 22 25 5 31 2 36 -15 4
-18 10 -21 34 -15 15 4 37 12 48 18 41 22 125 8 125 -21 0 -7 6 -10 14 -7 10
4 16 -6 21 -36 4 -22 13 -46 20 -54 10 -10 11 -16 2 -25 -8 -8 -7 -11 7 -11
33 0 1 -65 -41 -81 -15 -5 -21 -14 -17 -24 3 -8 1 -15 -4 -15 -24 0 -20 20 7
43 20 16 26 28 21 38 -5 7 -6 18 -2 24 14 22 9 37 -17 48 -17 8 -25 18 -23 30
2 10 -4 19 -15 23 -10 3 -26 10 -35 15 -26 13 -35 11 -40 -9 -4 -12 0 -18 11
-18 9 1 16 -3 16 -9 0 -5 -9 -10 -20 -10 -16 0 -20 7 -20 36 0 31 3 35 20 31
16 -4 18 -2 8 8 -7 8 -19 10 -30 5 -10 -5 -21 -7 -25 -7 -14 3 -8 -10 10 -25
15 -13 13 -14 -20 -8 -24 4 -38 2 -38 -5 0 -5 -5 -10 -12 -10 -6 0 -20 -7 -30
-17 -22 -19 -24 -5 -3 23 20 26 19 29 -10 30 -14 1 -25 -2 -25 -7 0 -5 5 -9
10 -9 22 0 8 -22 -20 -31 -19 -7 -30 -18 -30 -30 0 -10 -4 -19 -10 -19 -5 0
-6 8 -3 17 6 15 5 16 -9 3 -9 -8 -12 -16 -7 -18 19 -7 8 -22 -16 -22 -29 0
-32 -17 -7 -37 10 -8 11 -11 2 -7 -13 7 -13 5 -2 -9 8 -9 11 -21 7 -27 -3 -5
-2 -10 3 -10 8 0 32 -42 32 -55 0 -13 -41 -3 -47 11 -4 12 -8 13 -13 3 -5 -7
-2 -18 6 -26 8 -8 12 -18 9 -23 -9 -14 -67 -40 -76 -34 -13 8 -11 -10 3 -24 6
-6 12 -22 14 -35 1 -13 7 -42 13 -65 11 -38 14 -41 54 -46 23 -3 53 -4 67 -2
31 3 50 -15 50 -49 0 -27 1 -27 44 -21 34 5 56 2 95 -14 42 -18 53 -20 73 -9
20 11 193 23 296 20 30 -1 32 1 30 32 -3 31 -2 32 39 35 45 3 75 -16 104 -69
13 -22 17 -24 45 -14 25 8 30 15 30 40 0 29 1 30 59 36 33 3 54 6 46 7 -9 1
-11 10 -7 28 5 19 1 30 -16 44 -13 11 -18 19 -11 20 7 0 10 9 8 22 -3 13 3 29
13 39 13 11 17 27 14 51 l-4 35 -23 -21 c-18 -16 -21 -22 -10 -24 22 -5 18
-18 -10 -36 -24 -16 -25 -16 -25 5 0 13 -5 19 -13 16 -8 -3 -13 4 -13 19 0 17
4 23 14 19 10 -3 12 3 10 23 -3 30 -21 33 -26 3 -2 -10 -12 -27 -22 -36 -19
-17 -20 -17 -29 9 -6 14 -17 26 -25 26 -7 0 -13 8 -12 18 0 9 -5 16 -11 15 -7
-2 -13 2 -13 8 0 6 -7 8 -16 5 -8 -3 -12 -2 -9 4 3 6 2 10 -3 10 -5 0 -12 8
-14 18 -3 10 -13 19 -22 19 -10 0 -15 -6 -12 -14 4 -10 -2 -12 -20 -9 -20 4
-24 1 -20 -10 7 -19 -18 -18 -35 2 -17 20 -19 57 -5 67 7 6 4 7 -6 3 -12 -3
-18 0 -18 9 0 8 6 15 14 15 8 0 16 4 18 9 4 12 117 21 124 10 3 -5 18 -9 35
-9 16 0 29 -5 29 -10 0 -6 6 -10 13 -9 6 1 25 -3 40 -9 16 -7 32 -10 37 -7 4
2 15 -4 25 -15 10 -11 26 -20 35 -20 27 0 48 -32 45 -68 -1 -21 3 -36 12 -39
15 -6 18 -59 3 -68 -7 -4 -7 -11 -2 -18 5 -7 8 -20 7 -29 -2 -10 3 -18 11 -18
20 0 6 -28 -18 -36 -16 -5 -18 -8 -7 -15 10 -6 8 -10 -11 -17 -28 -11 -26 -12
53 -32 39 -11 53 -10 72 0 27 14 80 4 137 -26 34 -18 33 -18 35 8 1 13 7 24
13 26 5 2 10 12 10 21 0 10 11 24 25 31 13 7 22 16 20 20 -3 5 1 23 9 41 10
24 11 39 4 52 -5 11 -9 38 -9 61 2 70 2 80 -5 114 -4 21 -2 32 5 32 6 0 16 10
20 23 9 21 10 21 21 -11 9 -23 17 -31 27 -28 8 3 17 6 19 6 2 0 4 16 4 36 0
36 0 36 25 20 34 -22 65 -21 65 3 0 18 2 19 30 5 37 -19 50 -12 50 27 0 27 2
29 21 19 16 -9 25 -8 40 6 10 9 19 23 19 30 0 15 46 12 62 -4 7 -7 17 -7 34 0
45 21 22 54 -24 36 -25 -9 -42 -3 -42 14 0 6 6 6 15 -2 13 -11 14 -10 10 1 -7
18 36 21 48 5 8 -13 29 13 21 26 -3 4 3 8 13 8 14 0 12 5 -12 24 -25 20 -31
22 -35 9 -5 -13 -8 -13 -20 2 -23 28 8 38 47 14 l32 -20 25 37 c14 21 23 41
20 46 -3 5 4 17 15 27 12 10 21 23 21 29 0 6 4 12 10 14 6 2 4 14 -4 30 -8 15
-12 29 -8 32 3 3 -10 6 -29 7 -31 1 -32 2 -9 8 27 8 28 25 3 53 -8 9 -16 22
-17 30 -7 31 -19 49 -32 44 -8 -3 -13 0 -11 6 1 7 -15 15 -36 18 -20 4 -40 10
-44 13 -3 4 -12 2 -20 -5 -10 -8 -17 -8 -25 0 -17 17 -29 15 -26 -4 2 -9 -7
-20 -19 -25 -19 -7 -23 -5 -23 11 0 46 -38 5 -43 -46 -3 -24 -9 -39 -18 -40
-30 -2 -31 -5 -10 -23 15 -13 18 -22 11 -26 -15 -9 -40 26 -34 47 3 9 0 19 -6
23 -16 10 -12 72 6 89 8 9 19 14 24 11 4 -3 11 2 14 11 4 9 13 14 21 10 8 -3
15 -1 15 5 0 6 7 9 15 5 8 -3 15 -2 15 2 0 4 15 7 33 7 20 0 31 5 30 13 -2 6
2 12 7 12 6 0 10 -7 10 -15 0 -9 9 -15 24 -15 19 0 23 4 19 19 -7 28 -83 39
-100 15 -7 -10 -13 -12 -13 -6 0 7 -7 12 -17 12 -9 0 -13 3 -10 7 4 3 -1 11
-10 18 -13 10 -6 10 34 2 43 -9 53 -8 67 6 9 9 23 14 31 11 8 -4 15 -1 15 6 0
8 -9 10 -27 5 -24 -6 -25 -5 -13 11 13 14 12 19 -8 34 -16 13 -18 20 -10 24 7
3 -4 3 -25 0 -27 -3 -37 -2 -32 5 7 12 -34 32 -47 24 -5 -2 -8 1 -8 6 0 23
-40 11 -46 -14 -3 -14 -10 -22 -15 -20 -4 3 -6 12 -2 20 3 10 -2 15 -16 15
-12 0 -21 5 -21 11 0 5 5 7 10 4 6 -3 10 -2 10 3 0 5 -9 12 -20 15 -15 4 -20
0 -20 -16 -1 -20 -2 -20 -11 -4 -6 9 -13 15 -17 13 -9 -5 -8 -48 1 -62 3 -5 3
-14 -1 -19 -11 -16 -36 -11 -44 8 -9 21 -32 23 -24 1 4 -12 1 -14 -13 -9 -11
3 -22 2 -24 -3 -3 -4 3 -9 14 -9 21 -2 79 -43 60 -43 -7 0 -9 -5 -6 -10 6 -10
22 -8 60 7 7 2 11 -20 12 -57 1 -46 -2 -60 -13 -60 -8 0 -14 9 -14 20 0 11 -5
20 -10 20 -7 0 -7 7 0 21 15 27 2 40 -13 14 -6 -11 -12 -23 -12 -27 0 -5 -4
-8 -9 -7 -5 0 -13 -5 -18 -13 -6 -9 -7 -5 -3 10 5 17 0 31 -16 48 -18 19 -19
24 -6 24 9 0 19 5 23 11 5 8 -2 10 -22 6 -16 -3 -37 -1 -47 5 -22 11 -31 4
-42 -31 -6 -20 -4 -23 9 -18 9 4 16 3 16 -2 0 -11 -32 -47 -50 -54 -8 -4 -2
-5 14 -2 23 5 27 3 23 -9 -4 -9 -2 -18 3 -21 6 -4 10 -10 10 -14 0 -12 -48 -5
-65 9 -14 12 -59 4 -51 -9 3 -4 -4 -8 -15 -8 -17 -2 -18 1 -9 12 6 8 9 23 5
34 -6 18 -3 20 23 15 17 -4 32 -1 36 5 4 6 2 11 -3 11 -6 0 -11 4 -11 10 0 5
7 7 15 4 8 -4 15 -1 15 4 0 6 -16 10 -37 8 -37 -3 -63 8 -63 25 0 5 5 9 11 9
5 0 7 -4 4 -10 -3 -5 3 -10 15 -10 20 0 21 1 3 25 -10 13 -23 23 -30 20 -7 -2
-15 0 -18 5 -4 6 -1 10 5 10 8 0 9 7 5 18 -4 9 -8 23 -8 30 0 16 -4 15 -26 -7
-15 -15 -30 -19 -60 -16 -23 2 -41 -1 -41 -6 0 -5 5 -9 11 -9 5 0 7 -5 3 -11
-5 -8 -9 -8 -14 1 -10 16 -24 -5 -15 -22 4 -7 1 -6 -7 2 -7 8 -20 16 -28 18
-20 5 -41 23 -36 31 2 3 -7 6 -20 6 -30 0 -30 -2 -1 -27 17 -15 14 -14 -12 3
-30 20 -34 21 -28 5 6 -15 3 -17 -14 -13 -21 6 -21 6 1 -15 18 -17 24 -18 31
-7 7 11 9 11 9 -3 0 -9 6 -19 13 -22 6 -3 -1 -4 -16 -1 -20 4 -27 2 -22 -6 6
-8 2 -8 -13 0 -26 14 -35 14 -27 1 3 -5 1 -10 -5 -10 -6 0 -8 -5 -5 -11 4 -6
13 -8 21 -5 8 3 14 1 14 -5 0 -6 5 -7 10 -4 6 3 10 1 10 -4 0 -6 -4 -11 -10
-11 -6 0 -9 -5 -7 -12 1 -6 -9 -15 -23 -19 -14 -4 -21 -7 -16 -8 5 -1 3 -8 -5
-17 -10 -13 -10 -17 2 -25 8 -5 9 -9 3 -9 -6 0 -19 9 -29 20 -14 15 -15 20 -4
20 11 0 11 2 -1 10 -10 6 -11 10 -2 10 6 0 12 5 12 10 0 6 -7 10 -16 10 -14 0
-14 3 -4 15 17 20 -6 21 -26 1 -10 -11 -11 -15 -2 -18 9 -3 9 -6 0 -12 -7 -4
-12 -2 -12 3 0 6 -5 11 -11 11 -6 0 -8 -9 -4 -21 4 -12 3 -19 -2 -16 -5 3 -16
-3 -23 -14 -23 -30 -32 -22 -25 21 5 30 3 40 -7 41 -7 0 -4 4 7 9 17 7 16 9
-10 10 -18 2 -23 4 -12 7 9 2 17 11 17 19 0 8 8 27 18 41 11 18 12 24 3 19 -8
-5 -17 -3 -23 5 -8 11 -8 10 -4 -4 3 -10 -1 -25 -9 -33 -18 -18 -20 -4 -2 15
10 12 8 13 -8 7 -16 -6 -14 -1 10 25 17 18 23 30 15 27 -18 -7 -26 32 -8 43
12 7 1 49 -13 49 -5 0 -9 -5 -9 -10 0 -7 -6 -7 -19 0 -11 5 -27 7 -35 4 -11
-4 -15 -2 -11 8 8 19 -41 53 -49 35 -5 -9 -7 -9 -12 1 -3 6 -13 12 -22 12 -13
0 -11 -4 6 -16 24 -16 30 -39 9 -31 -20 8 -16 -19 4 -31 12 -8 20 -8 24 -2 3
6 13 10 22 10 14 0 14 -2 -1 -19 -10 -11 -24 -17 -32 -14 -9 3 -14 -1 -14 -12
0 -9 -5 -13 -10 -10 -6 4 -8 16 -5 28 6 21 5 20 -14 -3 l-19 -25 -7 27 c-6 23
-9 25 -25 15 -10 -6 -16 -15 -14 -19 3 -5 -4 -21 -15 -36 -11 -15 -19 -36 -18
-46 1 -11 -4 -21 -10 -23 -7 -3 -13 1 -13 8 0 7 -7 21 -17 31 -10 12 -12 18
-4 18 7 0 9 5 6 10 -3 6 -1 10 5 10 6 0 9 4 6 9 -3 5 1 12 10 15 22 8 31 7 17
-2 -8 -5 -9 -13 -3 -22 7 -11 10 -7 16 14 4 15 2 32 -4 38 -15 15 -3 38 22 39
18 1 18 2 3 6 -11 3 -16 11 -13 19 3 9 -1 14 -14 14 -11 0 -21 -2 -21 -5z"/>
<path d="M1596 3178 c2 -3 -2 -9 -8 -12 -7 -3 6 -3 30 -1 44 4 53 -4 27 -25
-8 -7 -15 -18 -15 -24 0 -13 -49 -38 -61 -30 -9 5 -14 -23 -10 -62 1 -14 -6
-23 -20 -27 -15 -4 -20 -11 -15 -21 18 -47 18 -49 -8 -22 -30 31 -44 30 -26
-4 9 -17 9 -21 -4 -18 -8 2 -15 -1 -16 -7 -1 -5 -11 -15 -23 -22 -18 -10 -19
-12 -4 -13 21 0 23 -20 2 -20 -8 0 -15 -7 -15 -16 0 -12 -3 -14 -12 -6 -18 14
-55 -2 -63 -27 -4 -13 -18 -21 -44 -26 -29 -5 -38 -11 -37 -23 2 -13 14 -17
55 -18 29 -1 57 -6 63 -12 6 -6 16 -8 23 -6 7 3 16 1 20 -5 9 -16 25 -14 25 3
0 7 -10 21 -22 30 -23 16 -22 16 5 4 22 -9 30 -9 36 1 4 7 16 14 27 15 19 3
40 56 23 56 -6 0 -8 4 -5 9 4 5 2 11 -2 13 -13 5 -24 58 -12 58 5 0 10 -4 10
-10 0 -25 20 -6 25 24 4 21 16 38 31 46 13 8 24 17 24 22 0 4 11 8 25 8 21 0
25 5 25 28 0 37 15 57 41 57 12 0 24 6 26 13 3 8 -1 10 -13 5 -13 -5 -15 -3
-8 8 12 19 12 59 -1 60 -45 4 -102 3 -99 -3z"/>
<path d="M1233 2914 c-28 -28 -29 -37 -5 -30 16 5 18 2 14 -25 -4 -26 -8 -30
-28 -25 -15 4 -34 0 -49 -10 -15 -10 -25 -12 -25 -5 0 6 -8 11 -17 11 -15 0
-16 2 -3 10 10 7 11 10 2 10 -8 0 -10 8 -6 25 4 18 1 27 -10 31 -9 3 -13 10
-10 15 3 5 1 9 -5 9 -6 0 -10 -17 -8 -37 1 -21 -2 -48 -6 -60 -7 -19 -5 -23
13 -23 26 0 24 -27 -4 -52 -23 -22 -36 -22 -61 -4 -21 15 -29 60 -9 52 7 -3
15 2 18 10 7 18 -3 46 -15 38 -5 -3 -9 2 -9 10 0 9 -7 16 -14 16 -11 0 -15
-11 -15 -37 1 -46 -4 -70 -16 -80 -4 -4 -5 -2 0 6 6 11 3 13 -12 9 -15 -4 -24
1 -32 19 -6 13 -9 29 -6 34 4 5 0 9 -9 9 -8 0 -16 6 -19 13 -2 6 -7 -3 -11
-21 -10 -41 3 -58 55 -73 21 -7 40 -18 43 -25 8 -20 -4 -44 -21 -44 -24 0 -8
-25 18 -28 33 -4 65 -58 47 -80 -11 -13 -10 -14 10 -8 12 4 22 4 21 -1 -4 -21
3 -32 21 -38 11 -4 18 -11 15 -16 -4 -5 0 -9 9 -9 21 0 25 23 7 38 -14 11 -14
13 3 27 11 8 14 15 7 15 -8 0 -10 7 -6 19 4 13 0 20 -17 24 -27 7 -22 14 15
21 16 3 25 1 22 -5 -9 -13 7 -11 28 5 19 15 23 42 5 48 -8 3 -8 9 0 24 6 10
12 15 12 10 0 -5 6 -3 14 3 10 8 16 9 21 1 8 -13 16 -12 39 5 19 14 19 15 1
35 -14 16 -15 22 -5 35 14 17 35 21 25 5 -3 -5 3 -10 14 -10 11 0 23 5 27 12
4 6 3 8 -4 4 -6 -3 -13 -2 -17 4 -3 6 4 10 17 11 l23 0 -22 11 c-25 12 -39 38
-20 38 7 0 19 -6 26 -12 11 -11 12 -9 3 8 -6 12 -21 28 -34 36 -21 14 -25 13
-45 -8z"/>
<path d="M2076 2869 c1 -20 -5 -37 -19 -50 -27 -25 -31 -24 -44 12 -7 19 -16
28 -23 24 -6 -4 -9 -14 -6 -22 4 -9 2 -21 -4 -27 -12 -15 14 -56 36 -56 8 0
14 -9 14 -20 0 -13 -5 -18 -15 -13 -11 4 -19 -4 -28 -26 -6 -17 -14 -31 -18
-31 -14 0 5 -52 24 -65 l21 -15 -22 -22 c-18 -18 -22 -19 -22 -6 0 9 -13 21
-30 27 -17 5 -30 14 -29 18 4 22 -3 33 -20 33 -11 0 -23 5 -26 10 -4 6 -11 8
-16 5 -14 -9 -23 23 -10 39 9 11 6 12 -15 8 -14 -2 -29 -14 -34 -27 -13 -35
-51 -40 -73 -10 -24 32 -37 32 -37 1 0 -24 -23 -56 -40 -56 -5 0 -15 7 -23 15
-13 13 -16 13 -21 -1 -3 -9 0 -24 8 -35 14 -21 10 -69 -6 -69 -5 0 -6 5 -2 11
3 6 -4 5 -17 -2 -13 -8 -35 -15 -49 -16 -14 -1 -34 -3 -45 -5 -14 -2 -20 3
-20 15 0 10 -8 23 -18 28 -12 7 -17 6 -17 -2 0 -8 -3 -9 -13 0 -8 6 -17 8 -20
4 -4 -3 -7 1 -7 10 0 10 -8 17 -18 17 -41 0 -54 40 -24 74 17 21 17 21 -4 4
-11 -10 -26 -18 -33 -18 -9 0 -10 -16 -5 -59 6 -57 5 -60 -15 -58 -12 1 -24
10 -27 22 -13 46 -30 75 -43 75 -8 0 -11 -6 -7 -15 3 -9 0 -15 -9 -15 -20 0
-19 -7 4 -36 11 -13 17 -33 14 -43 -4 -14 2 -20 24 -23 15 -3 35 -8 44 -12 11
-5 19 1 27 19 17 37 58 35 66 -5 6 -32 32 -40 53 -19 9 9 14 5 19 -17 4 -16
11 -35 17 -42 5 -7 7 -28 4 -48 -5 -29 -3 -36 15 -43 27 -10 31 -48 6 -73 -23
-23 -28 -23 -29 0 0 13 -2 13 -9 -4 -11 -28 -26 -37 -49 -29 -51 16 -22 91 31
80 22 -5 27 -4 22 9 -3 8 -19 19 -35 25 -28 10 -34 5 -30 -21 2 -17 -29 -7
-39 13 -10 17 -14 18 -27 7 -14 -11 -15 -10 -9 10 5 14 3 22 -4 22 -7 0 -14
-9 -17 -21 -5 -16 -11 -19 -31 -14 -19 5 -23 3 -19 -8 3 -9 -6 -23 -23 -36
-30 -21 -56 -28 -45 -12 3 5 1 12 -5 16 -5 3 -10 17 -10 30 0 18 4 23 15 19 8
-4 15 -1 15 6 0 8 -8 10 -22 6 -13 -3 -26 -6 -30 -6 -3 0 -9 -13 -13 -30 -4
-16 -13 -30 -21 -30 -9 0 -14 -11 -14 -29 0 -16 -7 -37 -16 -46 -13 -13 -15
-28 -11 -71 5 -48 4 -54 -13 -54 -23 0 -35 17 -22 33 15 20 11 48 -7 43 -9 -3
-24 5 -34 19 -16 22 -16 25 -2 25 9 0 14 4 11 9 -3 5 1 14 9 21 10 8 11 18 5
35 -5 13 -6 26 -3 29 4 3 -1 6 -10 6 -10 0 -17 -4 -17 -10 0 -5 -13 -10 -30
-10 -26 0 -30 3 -30 29 0 36 30 47 59 20 20 -19 51 -16 51 4 0 6 9 21 21 33
23 24 18 44 -9 43 -10 0 -12 -3 -5 -6 10 -3 10 -7 0 -17 -13 -15 -33 -11 -58
11 -14 12 -17 12 -23 -3 -5 -13 -15 -15 -47 -11 -43 6 -62 17 -41 24 6 3 12
11 12 18 0 7 14 20 30 29 26 12 30 12 30 0 0 -17 11 -18 53 -1 33 13 71 14 98
3 9 -4 23 -1 31 8 9 8 24 12 37 9 26 -7 28 13 2 27 -14 7 -21 6 -24 -3 -3 -9
-9 -9 -29 2 -15 7 -31 11 -36 7 -6 -3 -13 -2 -17 4 -3 5 -11 10 -16 10 -6 0
-8 -3 -6 -7 3 -5 -14 -9 -36 -10 -23 -1 -45 3 -48 9 -5 8 -19 8 -48 1 -34 -9
-41 -8 -41 4 0 11 -7 14 -24 9 -28 -7 -86 20 -86 40 0 25 -37 -2 -42 -30 -4
-22 -1 -25 26 -28 25 -2 30 -7 28 -25 -4 -25 15 -40 31 -24 17 17 41 13 61
-10 15 -18 15 -23 5 -30 -19 -12 -27 -11 -34 2 -4 6 -13 8 -21 5 -8 -3 -14 0
-14 6 0 6 -11 8 -30 5 -22 -5 -30 -3 -30 8 0 9 -6 12 -15 8 -9 -3 -15 -2 -14
3 4 23 -3 34 -19 34 -10 0 -25 11 -32 24 -13 26 -38 41 -49 30 -3 -3 2 -11 12
-19 15 -11 16 -17 6 -39 -7 -14 -16 -26 -21 -26 -4 0 -8 -5 -8 -11 0 -6 5 -7
13 -2 21 13 39 12 54 -3 21 -20 13 -59 -12 -59 -13 0 -21 -8 -23 -22 -3 -17 2
-23 15 -23 20 1 64 30 45 30 -7 0 -12 4 -12 8 0 9 86 10 93 1 3 -2 8 -14 11
-26 8 -25 -24 -53 -60 -53 -15 0 -21 -6 -20 -17 1 -24 -37 -29 -58 -8 -9 9
-14 21 -11 26 4 5 -1 6 -9 3 -11 -4 -16 0 -16 11 0 9 -4 14 -9 11 -5 -4 -11 0
-14 6 -7 22 -19 2 -23 -41 -3 -32 0 -41 12 -41 18 0 37 -18 47 -42 5 -15 1
-18 -23 -18 -19 0 -30 6 -33 18 -4 15 -5 15 -6 -2 -1 -12 -6 -16 -16 -12 -8 3
-15 1 -15 -4 0 -14 67 -40 101 -40 19 0 29 -5 29 -15 0 -19 -36 -39 -45 -25
-10 15 -25 2 -18 -16 4 -12 19 -14 64 -12 48 2 61 -1 72 -16 12 -17 18 -18 47
-8 42 15 41 15 33 -5 -4 -11 -3 -14 5 -9 8 4 12 0 12 -10 0 -14 3 -15 12 -6 7
7 21 12 31 12 13 0 17 5 13 15 -3 8 -1 15 5 15 14 0 24 -31 12 -39 -5 -3 -13
-15 -16 -25 -11 -29 21 -54 62 -48 l34 5 -21 -21 c-11 -11 -30 -22 -43 -24
-12 -2 -23 -10 -25 -18 -1 -8 -5 -32 -9 -53 -6 -33 -5 -36 11 -30 12 4 15 3
10 -5 -10 -17 9 -15 24 3 17 21 54 19 75 -5 l18 -20 14 20 c18 26 47 26 73 0
26 -26 42 -25 90 5 58 36 148 57 243 55 45 -1 97 2 116 5 23 5 36 4 41 -6 7
-10 14 -10 32 -2 31 14 224 9 243 -7 10 -8 19 -8 34 -1 11 6 24 11 28 10 21
-4 43 2 43 11 0 5 -8 7 -17 4 -15 -5 -15 -3 2 11 11 8 21 12 23 7 1 -5 16 -6
33 -4 35 5 49 -9 49 -50 0 -25 2 -26 38 -21 20 3 39 10 40 15 2 5 14 21 27 36
28 33 39 68 25 77 -5 3 -10 -2 -10 -14 0 -26 -41 -90 -59 -91 -11 0 -11 3 0
17 12 15 12 16 -3 10 -12 -4 -18 -2 -18 8 0 9 9 15 23 15 39 0 51 14 39 47 -7
22 -7 30 2 30 6 0 20 4 30 9 16 6 18 4 13 -10 -6 -15 -5 -15 17 1 13 10 21 24
18 32 -4 11 -1 13 14 7 10 -5 25 -9 32 -9 19 -1 14 -17 -5 -17 -15 0 -14 -4 6
-19 14 -10 31 -17 38 -14 7 3 13 -2 13 -12 0 -9 12 -32 26 -50 l26 -34 29 32
c53 59 58 66 51 71 -4 2 -23 -3 -42 -11 -19 -9 -38 -15 -42 -15 -5 1 -8 -3 -8
-8 0 -19 -17 -10 -28 15 -7 14 -12 28 -12 30 0 10 19 4 34 -11 15 -14 16 -14
16 1 0 9 5 13 10 10 6 -3 10 -1 10 5 0 7 8 9 19 5 12 -3 21 0 25 10 3 8 1 15
-3 15 -5 0 -11 7 -14 14 -4 10 -1 13 7 10 8 -3 17 -1 21 5 3 6 -1 11 -10 11
-13 0 -16 6 -11 26 7 25 5 26 -21 20 -24 -5 -26 -5 -11 7 9 7 18 22 20 32 1
11 12 22 23 25 14 4 20 15 20 37 0 17 5 37 11 44 7 8 10 39 8 69 -2 30 -4 77
-5 103 -1 40 -4 47 -18 42 -12 -5 -13 -3 -5 5 7 7 10 28 7 50 -5 37 -4 39 20
35 21 -4 24 -2 20 15 -6 22 -18 26 -28 10 -4 -6 -11 -8 -16 -4 -5 3 -7 9 -4
14 3 4 2 16 -1 25 -5 12 -14 14 -35 10 -36 -8 -40 12 -4 21 28 7 56 34 35 34
-7 0 -10 7 -6 16 4 10 -2 24 -16 36 l-23 20 25 -7 25 -7 -25 18 c-14 10 -28
22 -31 27 -10 14 -21 -11 -14 -32 3 -11 1 -22 -5 -26 -15 -9 -12 -45 5 -51 11
-5 12 -11 4 -25 -5 -11 -7 -24 -4 -29 3 -6 1 -10 -5 -10 -6 0 2 -11 17 -25 31
-27 13 -35 -21 -10 -28 21 -53 20 -36 0 7 -9 15 -13 18 -11 2 3 14 0 26 -6 11
-7 24 -12 27 -11 3 1 6 -5 6 -13 0 -7 -4 -14 -8 -14 -5 0 -6 -7 -3 -15 5 -11
2 -13 -10 -9 -12 5 -16 0 -16 -20 0 -14 5 -26 10 -26 6 0 10 -10 10 -22 0 -24
-13 -50 -24 -49 -16 2 -6 -15 15 -26 13 -7 18 -13 11 -13 -8 0 -12 -6 -10 -12
6 -16 -16 -38 -36 -38 -9 0 -16 -4 -16 -10 0 -5 -8 -2 -19 9 -10 10 -23 20
-29 22 -6 2 -12 13 -14 24 -2 15 5 22 29 30 18 6 36 15 40 19 7 8 -1 7 -59
-11 -21 -6 -22 -5 -9 10 7 9 10 24 7 33 -4 9 0 27 8 39 19 28 25 117 8 123
-16 5 -72 -20 -66 -30 3 -4 0 -8 -6 -8 -8 0 -10 -9 -6 -26 5 -19 4 -24 -6 -18
-11 6 -11 5 0 -8 12 -15 7 -52 -7 -44 -3 2 -15 -5 -26 -16 -11 -11 -15 -18 -8
-16 6 2 12 -1 13 -7 1 -5 6 -15 10 -21 15 -17 -1 -54 -27 -60 -14 -4 -22 -12
-19 -19 3 -8 -3 -16 -12 -20 -10 -3 -12 -9 -6 -13 5 -4 -4 -22 -24 -42 -18
-19 -30 -27 -26 -17 4 11 1 17 -10 17 -9 0 -13 6 -10 15 4 8 10 12 15 9 13 -8
11 20 -3 34 -9 9 -9 12 3 12 17 0 44 64 34 80 -3 5 3 10 14 10 23 0 32 31 13
45 -7 6 -14 20 -15 33 0 12 -5 22 -9 22 -13 0 -40 -49 -33 -60 4 -6 -3 -20
-16 -31 -17 -14 -25 -16 -36 -8 -10 9 -13 7 -13 -10 0 -12 5 -31 10 -41 7 -13
7 -21 -2 -26 -8 -5 -6 -10 8 -15 16 -6 15 -8 -11 -14 -16 -5 -40 -15 -52 -22
-18 -12 -20 -18 -11 -33 15 -23 -8 -48 -51 -56 -17 -4 -31 -12 -31 -19 0 -7
-7 -18 -15 -25 -21 -18 -19 -32 5 -25 12 4 26 0 34 -8 13 -12 12 -16 -10 -25
-17 -9 -24 -9 -24 -1 0 8 -4 8 -12 2 -12 -8 -21 -9 -44 -4 -4 0 0 9 7 18 13
16 13 16 -11 0 -40 -28 -54 -22 -33 13 9 17 21 30 25 30 4 0 8 7 8 15 0 12 5
13 28 5 l27 -10 -25 20 -25 20 25 0 c30 0 66 20 38 20 -10 0 -18 5 -18 10 0
14 37 50 51 50 12 0 38 29 39 43 0 5 -13 6 -30 2 -26 -6 -30 -4 -30 14 0 13 6
21 16 21 14 0 15 2 3 17 -13 15 -12 15 9 4 18 -10 22 -9 22 4 0 8 7 15 16 15
10 0 14 6 10 15 -3 8 -1 15 4 15 6 0 10 -10 10 -22 1 -21 1 -22 11 -5 9 15 7
23 -10 41 l-20 21 30 20 c26 17 29 25 24 51 -4 26 -2 33 15 37 15 4 20 13 20
41 0 27 6 39 26 53 l26 17 -22 18 c-23 19 -45 24 -36 9 3 -5 -1 -15 -10 -22
-19 -15 -46 -2 -50 24 -2 18 4 20 49 17 33 -2 42 16 29 63 -10 35 -1 70 12 48
11 -18 33 -13 59 13 19 19 21 26 11 30 -8 3 -21 3 -29 0 -9 -4 -15 0 -15 8 0
14 -30 48 -41 48 -3 0 -4 -14 -3 -31z"/>
<path d="M2525 2795 c4 -16 9 -36 11 -44 2 -7 -4 -20 -13 -27 -17 -13 -17 -13
0 -14 14 0 17 -5 12 -20 -4 -13 -1 -22 10 -26 10 -4 13 -13 10 -25 -5 -14 1
-20 27 -28 32 -9 32 -9 6 -10 -16 -1 -28 -5 -28 -11 0 -5 -7 -10 -15 -10 -31
0 -5 -45 38 -65 l32 -15 -30 5 -30 5 24 -20 c27 -23 20 -40 -9 -22 -25 15 -26
4 -2 -14 11 -9 13 -13 4 -14 -7 0 -10 -5 -6 -11 3 -6 17 -8 32 -4 22 5 24 4
12 -9 -11 -15 -16 -14 -47 5 -38 24 -38 24 -47 -11 -4 -14 -4 -20 1 -14 4 6
17 10 29 9 23 -2 76 -35 55 -35 -8 0 -11 -6 -7 -16 5 -12 1 -14 -15 -9 -14 5
-27 -1 -45 -18 l-24 -24 25 0 c16 0 25 5 25 16 0 10 3 12 8 5 4 -6 15 -13 25
-17 9 -3 17 -11 17 -16 0 -10 -48 -48 -65 -51 -5 -1 -9 -8 -7 -16 2 -8 -5 -14
-15 -15 -11 0 -13 -3 -5 -6 6 -2 12 -13 12 -24 0 -10 4 -19 9 -19 5 0 16 -2
23 -5 9 -4 14 4 16 25 2 22 -2 30 -14 30 -14 0 -14 1 1 16 10 11 24 14 41 10
20 -5 27 -3 31 13 3 12 9 19 13 16 4 -2 5 7 2 20 -3 18 0 25 12 25 10 0 16 9
16 24 0 13 6 27 13 29 9 4 9 7 -1 15 -7 5 -10 15 -7 23 3 8 -3 31 -14 52 -17
32 -17 38 -4 33 13 -5 14 -4 3 9 -10 12 -16 13 -26 4 -11 -9 -14 -8 -14 4 0 8
7 20 15 27 21 18 19 48 -5 55 -11 3 -20 13 -20 21 0 8 -7 14 -15 14 -8 0 -15
5 -15 10 0 6 9 10 19 10 11 0 23 5 26 11 9 13 -25 40 -42 34 -15 -5 -17 14 -4
34 6 9 4 23 -6 38 -12 18 -18 21 -24 11 -7 -10 -9 -10 -9 2 0 8 -8 24 -16 35
-15 19 -15 19 -9 -10z"/>
<path d="M9061 2802 c0 -7 -5 -10 -11 -7 -5 3 -10 2 -10 -4 0 -6 -7 -8 -15 -5
-8 4 -26 -1 -40 -10 -25 -16 -30 -54 -11 -84 12 -19 -20 -25 -53 -11 -24 11
-29 18 -25 35 3 12 1 25 -5 28 -10 6 -16 -14 -12 -38 1 -4 -3 -14 -10 -22 -9
-11 -7 -18 11 -32 20 -17 21 -20 7 -34 -9 -9 -13 -18 -10 -22 4 -3 -2 -6 -13
-6 -18 -1 -18 -1 -2 -11 13 -7 28 -5 53 7 19 9 35 18 35 20 0 2 -16 19 -35 39
-25 24 -31 35 -19 35 9 0 18 -9 21 -20 6 -21 28 -27 36 -10 3 6 4 5 3 -2 -3
-15 21 -41 41 -44 19 -3 35 30 21 44 -7 7 -19 12 -27 13 -11 0 -10 3 4 9 30
13 35 12 35 -10 0 -11 5 -20 10 -20 6 0 10 -8 8 -17 -2 -14 4 -18 26 -19 17
-1 37 -10 47 -23 16 -19 19 -20 33 -5 15 14 20 28 18 45 -1 4 8 5 18 2 11 -3
20 -9 20 -14 0 -5 5 -9 11 -9 5 0 7 5 4 10 -6 10 7 14 34 10 9 -1 12 4 7 15
-3 9 -2 13 4 10 6 -3 10 1 10 9 0 10 9 16 24 16 14 0 28 5 32 11 10 16 -12 33
-33 25 -15 -6 -15 -9 -3 -17 11 -8 7 -9 -15 -4 -16 4 -33 11 -36 17 -4 6 -15
7 -26 4 -27 -9 -50 1 -56 25 -3 10 -12 19 -21 19 -14 0 -20 11 -17 32 0 3 -13
5 -29 3 -21 -3 -30 1 -33 13 -3 9 -5 11 -6 4z"/>
<path d="M9847 2745 l-17 -35 28 -1 c23 0 24 -1 7 -8 -24 -9 -55 -3 -55 12 0
5 -8 0 -19 -11 -10 -12 -21 -19 -25 -15 -3 3 -6 -3 -6 -15 0 -12 -4 -22 -10
-22 -5 0 -7 7 -4 15 4 10 0 15 -13 15 -10 0 -25 6 -32 13 -10 10 -11 7 -6 -13
5 -21 2 -26 -14 -27 -12 -1 -21 3 -21 9 0 6 -6 6 -15 -2 -13 -10 -15 -9 -15 8
0 23 -15 38 -24 23 -4 -5 -1 -11 6 -13 8 -3 9 -12 0 -36 -11 -31 -10 -31 17
-26 16 4 32 1 35 -5 4 -6 3 -11 -3 -11 -6 0 -7 -8 -4 -17 5 -13 2 -15 -11 -10
-14 6 -16 3 -11 -13 4 -11 2 -20 -4 -20 -6 0 -11 5 -11 10 0 6 -8 10 -17 10
-13 0 -14 3 -5 12 8 8 9 15 1 25 -14 16 -29 17 -29 2 0 -5 5 -7 10 -4 6 3 10
1 10 -4 0 -6 -9 -11 -19 -11 -10 0 -22 -7 -25 -16 -9 -22 -8 -24 9 -18 9 4 15
1 15 -7 0 -10 3 -10 12 -1 16 16 52 -4 43 -26 -5 -14 -4 -15 6 -4 16 15 59 16
59 1 0 -6 -7 -8 -16 -5 -10 4 -14 1 -12 -6 3 -7 12 -13 22 -13 22 0 78 -65 71
-82 -2 -8 0 -11 5 -8 6 3 10 0 10 -7 1 -8 8 -4 19 9 20 24 57 27 65 6 3 -7 1
-13 -5 -13 -6 0 -7 -5 -3 -11 4 -7 -1 -7 -16 1 -27 15 -45 1 -45 -35 -1 -26 2
-28 45 -29 19 -1 27 -9 36 -35 6 -18 21 -39 33 -45 12 -7 19 -15 15 -18 -3 -4
4 -4 16 -1 17 5 20 11 16 32 l-5 26 12 -27 c13 -33 27 -35 58 -7 l24 20 -22
-6 c-14 -4 -23 -2 -23 4 0 6 -7 11 -16 11 -8 0 -12 5 -9 10 4 6 -8 17 -26 24
l-32 14 31 7 c18 3 34 11 37 16 4 5 11 9 16 9 6 0 7 -4 4 -10 -4 -6 1 -7 10
-3 10 3 21 0 26 -8 7 -11 9 -10 9 6 1 20 1 20 15 1 13 -17 15 -17 15 -3 0 9
-12 23 -27 32 -27 15 -27 16 -3 10 l25 -6 -22 19 c-22 19 -22 62 -1 62 5 0 8
10 6 23 -2 16 -11 23 -32 25 -23 3 -28 0 -23 -12 4 -10 1 -16 -8 -16 -9 0 -12
-6 -8 -16 5 -14 3 -14 -15 -3 -18 11 -19 15 -7 22 9 4 13 12 10 17 -7 12 50
29 77 23 18 -4 20 -3 8 6 -8 6 -28 9 -45 6 -28 -6 -29 -5 -11 9 10 8 24 17 30
19 6 2 8 8 4 12 -4 4 -24 -2 -44 -14 -20 -12 -38 -20 -40 -19 -14 15 77 64
131 72 22 3 41 5 43 6 1 0 2 5 2 10 0 11 -21 8 -97 -13 -24 -6 -43 -15 -43
-20 0 -4 -5 -5 -12 -1 -7 5 -5 11 7 21 18 13 18 13 0 13 -26 0 -11 12 20 16
21 2 24 0 14 -12 -9 -12 -6 -12 20 -3 34 12 56 35 23 25 -13 -4 -22 -1 -26 9
-3 10 1 15 12 15 13 0 14 2 4 8 -7 5 -10 16 -6 25 4 11 1 17 -9 17 -26 0 -47
-12 -47 -26 0 -8 -7 -11 -17 -8 -15 5 -15 4 -3 -5 12 -8 12 -11 -3 -17 -9 -3
-17 -12 -17 -19 0 -7 -7 -18 -15 -25 -12 -10 -15 -9 -15 5 0 14 -3 15 -14 5
-13 -10 -13 -8 -3 14 11 23 12 24 19 5 7 -18 19 -27 17 -11 -1 4 -1 22 0 41 1
26 5 32 17 27 9 -3 12 -2 9 4 -4 6 -12 10 -18 9 -36 -4 -53 2 -54 22 -3 39
-19 40 -36 4z"/>
<path d="M8964 2448 c-3 -4 -20 -5 -38 -3 -31 4 -34 3 -28 -18 5 -20 4 -21
-11 -8 -15 12 -17 12 -11 -3 8 -20 18 -20 33 -2 13 15 51 10 64 -8 5 -8 10 -6
18 4 8 12 9 11 4 -7 -5 -20 -3 -21 36 -18 22 2 39 3 37 2 -1 -1 -14 -11 -27
-22 -14 -11 -21 -14 -17 -7 11 18 -5 15 -21 -5 -12 -15 -14 -15 -10 -2 6 18
-29 44 -38 29 -4 -6 -11 -8 -16 -5 -5 4 -13 -4 -18 -17 l-9 -23 -10 25 c-10
24 -11 24 -11 3 -1 -24 -8 -27 -35 -17 -21 8 -21 30 0 38 12 5 14 10 5 20 -6
7 -8 16 -4 19 3 4 1 7 -6 7 -8 0 -11 -7 -7 -15 3 -9 -1 -18 -8 -21 -9 -3 -13
-16 -11 -32 2 -15 4 -30 4 -34 1 -4 8 -5 16 -2 11 5 13 2 9 -10 -3 -9 -10 -16
-15 -16 -5 0 -9 -5 -9 -12 0 -6 3 -9 6 -5 11 10 33 -19 29 -39 -2 -10 -4 -23
-4 -29 -1 -5 -6 -3 -11 5 -8 13 -10 12 -10 -4 0 -12 -5 -16 -15 -12 -8 3 -15
1 -15 -4 0 -6 -9 -1 -21 11 -15 15 -24 18 -32 10 -7 -7 -3 -17 17 -32 l27 -21
-21 -23 c-12 -13 -37 -26 -55 -29 -32 -6 -33 -8 -22 -36 l11 -30 23 22 c17 16
23 18 24 7 1 -8 5 -3 9 11 6 20 8 21 9 6 1 -20 1 -20 17 0 15 19 15 18 11 -3
-3 -13 -2 -23 2 -23 6 0 7 -23 2 -50 -1 -3 -6 2 -11 10 -5 8 -10 10 -10 4 0
-16 -50 -24 -56 -9 -3 7 -15 10 -30 7 -18 -3 -27 -13 -31 -34 -4 -18 -9 -25
-13 -18 -12 19 -19 -3 -9 -28 8 -22 10 -22 26 -7 16 16 17 16 30 -1 19 -26
-11 -57 -48 -49 -21 5 -30 2 -39 -14 -7 -14 -7 -21 -1 -21 6 0 13 -11 17 -24
6 -25 68 -73 122 -95 27 -11 41 -12 74 -2 32 10 43 10 52 0 8 -9 7 -10 -4 -4
-8 5 -11 4 -7 0 22 -25 97 -5 97 26 0 11 -4 19 -10 19 -5 0 -10 -5 -10 -11 0
-5 -5 -7 -11 -3 -13 8 38 40 57 36 6 -1 17 13 25 30 8 18 23 35 33 37 10 1 30
16 44 33 19 22 27 26 33 16 7 -10 9 -10 9 0 0 21 17 13 24 -10 8 -29 -28 -61
-61 -55 -17 3 -23 0 -23 -14 0 -17 -36 -46 -52 -41 -11 3 -10 -6 2 -28 12 -23
70 -45 70 -26 0 7 6 13 14 13 11 0 12 -4 3 -19 -18 -28 6 -38 91 -38 41 0 72
-4 72 -10 0 -20 29 -10 36 13 13 42 58 96 79 94 11 -1 19 3 18 9 -3 17 55 26
79 13 11 -6 31 -9 43 -6 17 3 25 -1 28 -15 7 -26 22 -22 46 11 38 53 142 60
247 16 49 -20 122 -20 146 2 11 9 18 11 18 5 0 -7 7 -12 15 -12 8 0 15 -4 15
-10 0 -5 -8 -7 -17 -4 -10 2 -8 -1 4 -7 18 -9 26 -8 48 9 17 13 22 23 14 27
-6 4 -9 20 -7 35 4 26 1 29 -31 35 -19 4 -30 10 -24 13 7 5 7 11 -3 19 -13 13
-33 -1 -20 -14 3 -3 -3 -18 -14 -34 -14 -19 -16 -29 -8 -31 17 -6 2 -38 -17
-38 -9 0 -13 5 -10 10 3 6 -2 10 -12 11 -10 0 -13 3 -5 6 6 2 12 9 12 15 0 6
-7 7 -16 4 -8 -3 -22 0 -30 8 -18 19 -18 26 1 26 13 0 15 7 9 34 -5 30 -3 35
12 35 39 1 84 14 84 24 0 6 12 23 27 39 28 29 28 43 -1 32 -9 -3 -13 -11 -9
-16 4 -7 -4 -9 -23 -5 -34 6 -66 -17 -57 -41 4 -10 -1 -8 -15 6 -27 27 -28 33
-4 25 15 -5 16 -4 1 8 -23 20 -32 50 -13 42 7 -3 14 0 14 6 0 11 -13 15 -37
12 -7 -1 -13 9 -13 22 0 14 6 24 15 24 8 0 13 -2 11 -5 -3 -2 1 -10 7 -17 10
-11 15 -11 27 -1 24 20 48 26 53 13 3 -7 14 -1 30 16 17 17 21 27 12 27 -8 0
-16 -4 -19 -9 -3 -5 -15 -7 -25 -4 -12 3 -28 -4 -41 -17 -12 -12 -24 -20 -26
-17 -9 9 8 36 27 42 15 5 17 10 8 26 -5 11 -14 17 -20 14 -5 -4 -6 -11 -3 -17
4 -6 -1 -8 -14 -4 -13 5 -23 2 -29 -8 -6 -11 -13 -12 -23 -6 -13 8 -12 10 3
10 9 0 17 5 17 11 0 6 -9 9 -20 6 -11 -3 -18 -2 -15 3 3 4 -3 11 -12 14 -15 6
-15 8 -3 17 12 8 12 12 2 16 -9 3 -10 9 -2 18 7 9 6 16 -3 24 -25 20 -47 -10
-59 -79 -7 -36 -15 -67 -18 -70 -4 -3 -12 -15 -19 -27 -9 -18 -9 -23 1 -24 7
-1 -3 -5 -22 -9 l-35 -7 25 -11 c18 -8 20 -11 8 -11 -19 -1 -26 -21 -7 -21 6
0 4 -6 -4 -14 -8 -9 -24 -12 -36 -9 -32 8 -26 26 7 19 15 -4 22 -3 15 1 -15
11 -35 63 -24 63 13 0 21 27 15 45 -4 8 -15 15 -25 15 -10 0 -19 4 -19 9 0 6
9 8 20 6 11 -2 20 0 20 6 0 5 -5 9 -11 9 -6 0 -9 7 -5 15 3 9 0 15 -8 15 -7 0
-19 7 -26 15 -10 12 -7 14 25 10 21 -3 47 1 63 10 26 14 25 14 -23 9 -45 -5
-48 -4 -31 9 18 14 18 14 -2 19 -12 3 -23 1 -26 -6 -2 -6 -3 5 -2 25 2 32 0
35 -15 26 -9 -5 -25 -7 -35 -3 -15 6 -16 9 -4 16 8 5 11 12 8 15 -12 12 -30
-7 -25 -26 3 -11 1 -16 -4 -13 -6 3 -17 0 -25 -7 -12 -10 -13 -9 -7 6 5 15 3
17 -11 12 -9 -4 -15 -3 -12 2 17 26 -72 51 -97 27 -16 -17 -28 -11 -21 9 8 19
-22 26 -56 11 -17 -7 -29 -14 -27 -17 2 -2 7 -25 10 -52 6 -45 6 -47 -12 -37
-27 14 -31 13 -31 -10 0 -11 -7 -20 -15 -20 -9 0 -18 -7 -21 -15 -4 -8 -18
-16 -33 -16 -20 -1 -22 -2 -6 -6 11 -3 25 -10 30 -15 7 -8 5 -9 -7 -5 -10 3
-20 2 -23 -3 -4 -6 -14 -10 -24 -10 -12 0 -20 -9 -23 -25 -3 -14 -1 -25 3 -25
5 0 9 5 9 11 0 6 7 9 15 5 8 -3 15 0 15 6 0 7 6 6 16 -2 13 -11 16 -10 21 9 4
14 11 20 20 16 11 -3 13 -1 10 10 -4 8 -2 17 3 20 5 3 11 -4 15 -15 4 -11 11
-18 16 -15 12 8 11 -16 -1 -35 -8 -13 -10 -12 -10 3 0 21 -13 22 -30 2 -11
-13 -10 -14 4 -9 10 4 16 1 16 -7 0 -7 -3 -9 -6 -6 -4 3 -16 1 -27 -4 -15 -8
-22 -8 -28 2 -7 11 -9 11 -9 1 0 -9 -7 -11 -20 -7 -15 5 -18 3 -14 -8 3 -10
-2 -18 -15 -22 -30 -9 -54 -61 -48 -101 5 -30 1 -37 -35 -67 -49 -41 -81 -40
-72 2 4 14 17 35 30 46 14 12 22 28 20 40 -3 11 -5 23 -5 26 -1 11 -41 18 -41
8 0 -5 -5 -9 -11 -9 -8 0 -8 5 1 15 7 8 22 13 34 10 27 -7 38 2 59 46 9 20 24
39 32 43 8 3 15 11 15 17 0 8 -4 8 -15 -1 -15 -12 -16 -11 -19 23 -1 6 -5 15
-10 18 -5 4 0 16 11 28 19 20 19 20 33 1 19 -26 34 -26 20 0 -7 14 -7 26 -1
39 6 10 7 21 4 25 -3 3 -1 6 6 6 7 0 9 5 6 10 -3 6 -2 10 3 10 5 0 12 9 15 20
3 11 13 20 22 20 9 0 13 5 10 10 -5 8 -11 7 -21 -1 -21 -17 -19 9 3 33 9 10
11 18 5 18 -6 0 -13 -4 -16 -8 -6 -11 -106 9 -106 21 0 4 -5 5 -10 2 -6 -4
-17 -1 -25 5 -12 10 -15 10 -15 -2 0 -8 5 -19 12 -26 9 -9 6 -12 -15 -12 -17
0 -27 5 -27 15 0 8 4 15 10 15 5 0 7 6 5 13 -5 13 -54 17 -61 5z"/>
<path d="M17120 2390 c0 -5 -8 -10 -17 -10 -15 0 -16 -2 -3 -10 13 -8 12 -10
-2 -10 -10 0 -18 -4 -18 -10 0 -5 7 -10 15 -10 19 0 20 -16 1 -23 -8 -3 -17
-1 -19 6 -2 7 -7 9 -11 6 -3 -3 1 -22 9 -42 14 -33 14 -37 0 -37 -9 0 -13 -4
-10 -10 3 -5 1 -19 -5 -30 -9 -16 -8 -25 2 -38 11 -13 11 -15 -2 -10 -16 6
-17 5 -22 -70 -2 -24 -10 -47 -18 -52 -13 -9 -13 -10 0 -10 12 0 13 -2 1 -9
-7 -5 -10 -14 -7 -20 5 -7 -3 -11 -23 -11 -16 0 -32 -6 -34 -12 -3 -7 -6 -4
-6 6 -1 19 -2 19 -14 2 -17 -24 -58 -17 -73 11 -6 13 -14 20 -17 16 -4 -3 -7
1 -7 10 0 9 6 17 14 17 8 0 17 4 20 9 4 5 -4 7 -16 3 -23 -5 -23 -5 -4 16 11
12 25 22 33 22 7 0 13 5 13 10 0 7 -6 7 -19 0 -11 -5 -26 -10 -33 -10 -7 1 3
9 23 20 51 27 63 44 49 69 -10 19 -8 20 12 12 21 -8 23 -5 24 20 1 31 -5 36
-24 17 -9 -9 -12 -9 -12 -1 0 7 4 14 10 18 5 3 7 12 3 21 -3 8 5 26 17 39 25
27 21 46 -5 25 -8 -7 -15 -9 -15 -5 0 4 -7 2 -15 -5 -8 -7 -15 -9 -15 -6 0 4
-6 1 -14 -6 -12 -11 -12 -15 -2 -23 8 -6 10 -17 5 -30 -4 -11 -8 -16 -8 -12
-2 15 -31 -21 -31 -38 0 -12 -5 -15 -16 -11 -8 3 -22 0 -29 -8 -12 -12 -12
-16 0 -26 26 -21 19 -68 -12 -83 -36 -18 -58 -10 -83 31 -24 39 -24 42 -4 42
8 0 12 5 9 10 -3 6 -17 10 -31 10 -13 0 -24 4 -24 9 0 5 -12 12 -27 16 -22 5
-24 8 -12 16 10 8 8 9 -9 4 -18 -5 -25 -2 -29 13 -4 17 -33 39 -37 30 -1 -2
-7 -18 -13 -36 -10 -29 -10 -33 5 -30 9 2 25 -5 34 -14 22 -22 35 -68 18 -68
-7 0 -9 -8 -5 -21 6 -19 4 -20 -32 -14 l-38 6 38 -23 c31 -19 36 -27 32 -49
-5 -21 0 -30 20 -43 16 -10 24 -23 21 -32 -3 -8 1 -14 9 -14 20 0 19 -10 -2
-26 -22 -16 -53 -18 -53 -3 0 5 -4 7 -10 4 -5 -3 -10 -13 -10 -21 0 -10 12
-14 45 -14 35 0 43 -3 39 -15 -7 -17 11 -21 21 -5 8 12 45 13 45 1 0 -12 59
-20 66 -9 3 5 9 6 14 3 4 -3 11 2 14 11 5 12 10 14 20 5 7 -6 15 -8 19 -5 3 3
15 1 26 -6 12 -6 21 -7 21 -2 0 6 9 12 20 15 13 3 20 0 20 -8 0 -24 40 -45 66
-35 16 7 24 6 24 -1 0 -6 7 -8 16 -5 11 4 18 -1 21 -14 3 -11 9 -20 14 -20 5
0 9 -6 9 -14 0 -15 38 -29 53 -19 5 3 7 26 4 50 l-5 44 29 -6 c28 -6 29 -5 29
34 0 22 5 43 11 47 9 5 10 -6 7 -39 -8 -66 0 -73 56 -46 40 18 49 20 56 8 7
-11 10 -10 15 4 6 14 9 15 22 2 19 -20 40 -20 24 -1 -9 11 -9 15 1 19 9 3 6
10 -9 22 -34 24 -28 41 17 53 21 5 39 7 38 3 -1 -3 3 -15 7 -25 6 -15 3 -23
-13 -34 -20 -13 -21 -16 -6 -27 22 -16 11 -47 -13 -39 -12 4 -10 -1 7 -15 20
-16 21 -21 8 -21 -9 0 -20 5 -23 10 -12 20 -25 10 -19 -15 3 -14 3 -33 -1 -42
-26 -61 0 -84 62 -58 29 12 33 17 24 34 -14 25 -14 61 -1 61 6 0 10 -8 11 -17
1 -12 4 -10 9 7 6 20 8 21 9 6 1 -13 4 -17 11 -10 6 6 5 24 -2 51 -13 51 -5
91 18 89 22 -1 26 28 8 69 -9 22 -10 36 -4 40 6 3 10 13 10 21 0 11 -6 13 -22
8 -31 -9 -34 -12 -21 -25 19 -19 4 -40 -18 -28 -14 7 -19 6 -19 -3 0 -9 -3 -9
-10 2 -9 13 -11 13 -19 0 -8 -12 -12 -12 -29 3 -31 28 -82 19 -82 -14 0 -16
-3 -17 -19 -7 -11 7 -18 15 -15 19 2 4 0 10 -5 14 -6 3 -8 12 -4 20 4 11 1 13
-13 8 -17 -6 -18 -5 -4 12 14 17 13 18 -4 11 -20 -7 -20 -7 0 15 17 18 19 19
22 4 3 -15 5 -15 18 2 7 10 14 24 14 32 0 11 -3 11 -17 0 -15 -13 -15 -12 -5
7 8 16 8 24 0 32 -9 9 -9 12 0 12 7 0 12 5 12 10 0 6 -6 10 -14 10 -15 0 -16
-16 -3 -37 10 -16 -5 -17 -21 -1 -9 9 -12 8 -12 -5 0 -9 -5 -16 -11 -14 -7 1
-16 -11 -21 -28 -4 -16 -16 -39 -26 -51 -21 -24 -86 -39 -78 -18 3 8 1 16 -4
19 -7 4 -6 13 0 26 9 15 7 19 -6 19 -15 0 -14 4 6 26 19 19 21 27 12 33 -20
12 17 71 44 71 23 0 40 35 22 46 -5 3 -12 -3 -15 -15 -11 -42 -29 -19 -25 32
1 10 -5 17 -16 17 -14 0 -14 2 -3 9 8 5 16 18 17 28 5 34 10 52 17 59 13 13 7
24 -13 24 -11 0 -20 -4 -20 -10z"/>
<path d="M17700 2000 c-13 -9 -13 -11 0 -20 13 -8 12 -10 -2 -10 -10 0 -18 -4
-18 -9 0 -5 -10 -12 -22 -16 -20 -6 -16 -9 25 -18 26 -6 47 -14 47 -18 0 -5 7
-6 15 -3 8 4 15 2 15 -4 0 -14 -34 -25 -38 -13 -2 6 -13 11 -25 11 -22 -1 -22
-1 -2 -16 19 -16 19 -16 -5 -9 -23 7 -24 6 -11 -9 13 -16 12 -17 -15 -10 -26
7 -28 6 -15 -9 7 -9 16 -15 20 -13 4 3 13 0 21 -5 11 -8 6 -9 -17 -6 -38 4
-43 -7 -10 -24 12 -6 32 -21 44 -32 16 -14 26 -17 35 -10 7 6 33 17 57 24 44
13 44 13 72 -21 30 -36 50 -37 27 -1 -17 28 2 49 25 27 19 -19 67 -21 67 -3 0
7 13 12 32 12 28 0 33 4 34 25 2 25 -21 60 -38 60 -5 0 -4 -9 2 -21 15 -27 9
-32 -40 -33 -32 -1 -40 3 -40 17 0 21 -18 23 -26 3 -5 -12 -24 -14 -64 -6 -3
0 3 5 14 11 13 8 20 8 26 -1 5 -8 9 -5 12 8 4 15 2 19 -8 15 -8 -3 -14 0 -14
6 0 6 5 11 12 11 6 0 8 3 5 7 -4 3 -2 12 4 20 9 10 8 17 -1 28 -7 8 -9 15 -4
15 11 1 -27 30 -38 30 -4 0 -8 -4 -8 -10 0 -5 7 -10 15 -10 22 0 19 -47 -2
-52 -28 -7 -43 2 -44 25 0 12 -3 16 -6 10 -2 -7 -9 -13 -15 -13 -6 0 -7 7 -4
16 5 12 2 15 -11 9 -10 -4 -27 -9 -38 -12 -18 -3 -18 -2 -4 8 15 11 14 14 -3
31 -21 21 -19 20 -38 8z"/>
</g>
</svg>
